<svg width="366" height="731" viewBox="0 0 366 731" fill="none" xmlns="http://www.w3.org/2000/svg">
<g clip-path="url(#clip0_467_6399)">
<g opacity="0.4">
<path d="M145.114 288.845L248.642 274.439C255.704 273.454 258.943 282.995 252.727 286.516L161.805 338.115C156.752 341.033 157.738 348.574 163.401 350.047L264.516 376.351C271.45 378.121 270.8 388.188 263.678 389.069L159.952 401.941C154.18 402.661 152.198 410.061 156.836 413.569L240.228 476.568C245.955 480.891 241.483 489.934 234.592 488L133.87 460.234C128.228 458.679 123.603 464.717 126.521 469.77L179.454 559.908C183.026 566.095 175.501 572.706 169.877 568.324L87.4251 504.096C82.8085 500.506 76.2097 504.316 77.0102 510.109L91.4074 613.628C92.3908 620.69 82.85 623.931 79.3302 617.714L27.7357 526.804C24.8184 521.751 17.2766 522.737 15.8027 528.4L-10.5116 629.511C-12.2831 636.446 -22.3508 635.797 -23.2304 628.676L-36.0923 524.956C-36.8117 519.186 -44.2122 517.203 -47.7222 521.842L-110.732 605.235C-115.056 610.962 -124.099 606.491 -122.165 599.602L-94.3866 498.881C-92.8317 493.24 -98.8702 488.616 -103.922 491.533L-194.071 544.474C-200.257 548.046 -206.87 540.522 -202.486 534.898L-138.246 452.443C-134.655 447.827 -138.465 441.228 -144.258 442.029L-247.786 456.436C-254.849 457.42 -258.087 447.881 -251.872 444.36L-160.949 392.76C-155.897 389.843 -156.882 382.301 -162.544 380.828L-263.66 354.524C-270.594 352.754 -269.945 342.687 -262.823 341.806L-159.097 328.935C-153.325 328.215 -151.342 320.814 -155.979 317.306L-239.373 254.307C-245.1 249.984 -240.628 240.941 -233.737 242.874L-133.014 270.641C-127.373 272.196 -122.748 266.158 -125.665 261.106L-178.599 170.968C-182.171 164.781 -174.646 158.169 -169.022 162.551L-86.5696 226.78C-81.9531 230.37 -75.3543 226.56 -76.1547 220.767L-90.6331 117.225C-91.6164 110.163 -82.0764 106.923 -78.5558 113.139L-26.962 204.051C-24.0452 209.103 -16.5023 208.116 -15.0292 202.454L11.3375 101.312C13.1086 94.3779 23.176 95.0265 24.0565 102.148L36.9188 205.867C37.6389 211.638 45.0376 213.62 48.5476 208.982L111.558 125.588C115.882 119.861 124.925 124.332 122.991 131.222L95.2127 231.943C93.6575 237.584 99.6956 242.208 104.748 239.29L194.897 186.35C201.084 182.778 207.696 190.302 203.312 195.925L139.072 278.38C135.482 282.997 139.291 289.595 145.084 288.794L145.114 288.845Z" stroke="#0C513F" stroke-opacity="0.5" stroke-width="0.668651" stroke-miterlimit="10"/>
<path d="M97.1995 314.24L167.066 304.517C171.833 303.854 174.019 310.292 169.824 312.668L108.463 347.49C105.053 349.459 105.72 354.549 109.54 355.543L177.779 373.293C182.459 374.488 182.021 381.283 177.214 381.877L107.213 390.564C103.318 391.05 101.98 396.044 105.111 398.411L161.389 440.927C165.254 443.844 162.235 449.947 157.585 448.642L89.6115 429.904C85.8042 428.854 82.6834 432.93 84.6518 436.339L120.375 497.169C122.785 501.343 117.708 505.806 113.912 502.849L58.2675 459.503C55.1527 457.08 50.6983 459.652 51.2393 463.561L60.9558 533.423C61.62 538.189 55.1807 540.375 52.8053 536.18L17.9867 474.828C16.0183 471.419 10.9283 472.084 9.93343 475.906L-7.82533 544.142C-9.0207 548.821 -15.8142 548.383 -16.4089 543.578L-25.0892 473.582C-25.5741 469.687 -30.5682 468.349 -32.9368 471.479L-75.4598 527.758C-78.3774 531.623 -84.4806 528.606 -83.1766 523.956L-64.4292 455.984C-63.3799 452.179 -67.4549 449.056 -70.8646 451.025L-131.702 486.754C-135.877 489.164 -140.339 484.086 -137.381 480.29L-94.0284 424.645C-91.605 421.53 -94.1758 417.078 -98.0857 417.618L-167.952 427.34C-172.718 428.005 -174.904 421.566 -170.709 419.191L-109.349 384.368C-105.94 382.399 -106.605 377.31 -110.426 376.315L-178.666 358.564C-183.344 357.369 -182.905 350.576 -178.1 349.981L-108.098 341.295C-104.204 340.809 -102.865 335.815 -105.996 333.447L-162.274 290.932C-166.138 288.014 -163.121 281.912 -158.471 283.216L-90.497 301.955C-86.6897 303.004 -83.5688 298.929 -85.5372 295.52L-121.26 234.689C-123.671 230.514 -118.592 226.052 -114.798 229.01L-59.1537 272.355C-56.0389 274.778 -51.5845 272.206 -52.1254 268.297L-61.896 198.421C-62.5593 193.655 -56.1215 191.468 -53.746 195.663L-18.927 257.016C-16.9586 260.425 -11.8687 259.76 -10.8738 255.938L6.91959 187.682C8.11503 183.002 14.9097 183.44 15.5033 188.246L24.1836 258.242C24.6685 262.137 29.6626 263.474 32.0312 260.345L74.5541 204.065C77.4725 200.2 83.575 203.217 82.27 207.867L63.5229 275.839C62.4743 279.645 66.5486 282.766 69.9584 280.798L130.796 245.07C134.971 242.66 139.434 247.737 136.475 251.532L93.1221 307.178C90.6994 310.294 93.2702 314.746 97.1794 314.205L97.1995 314.24Z" stroke="#0C513F" stroke-opacity="0.5" stroke-width="0.668651" stroke-miterlimit="10"/>
<path d="M48.9192 340.331L83.7543 335.485C86.1309 335.153 87.2212 338.363 85.129 339.548L54.5356 356.91C52.8349 357.892 53.1665 360.429 55.0719 360.926L89.0957 369.775C91.4288 370.372 91.2102 373.758 88.8135 374.055L53.9122 378.387C51.9692 378.628 51.3028 381.119 52.8628 382.299L80.9239 403.497C82.8502 404.951 81.3456 407.995 79.0278 407.345L45.1353 398.001C43.2379 397.478 41.6809 399.51 42.6621 401.21L60.4742 431.54C61.6756 433.621 59.1433 435.846 57.2517 434.372L29.5079 412.759C27.954 411.552 25.7342 412.834 26.0036 414.782L30.8477 449.616C31.1785 451.992 27.9682 453.082 26.7842 450.991L9.42297 420.4C8.44186 418.701 5.90377 419.033 5.40796 420.938L-3.44558 454.961C-4.04249 457.294 -7.43062 457.075 -7.72565 454.679L-12.0546 419.779C-12.2966 417.838 -14.7864 417.17 -15.9673 418.732L-37.169 446.791C-38.6246 448.718 -41.6663 447.215 -41.0165 444.896L-31.6688 411.005C-31.1463 409.107 -33.1775 407.551 -34.8781 408.533L-65.2112 426.347C-67.2922 427.548 -69.5182 425.017 -68.0426 423.125L-46.4267 395.379C-45.219 393.826 -46.5011 391.606 -48.4497 391.875L-83.2853 396.723C-85.6626 397.054 -86.751 393.844 -84.66 392.66L-54.0666 375.298C-52.366 374.316 -52.6982 371.778 -54.6029 371.282L-88.6274 362.431C-90.9598 361.836 -90.7419 358.449 -88.3452 358.152L-53.4433 353.821C-51.5009 353.578 -50.8338 351.089 -52.3945 349.908L-80.4544 328.709C-82.3819 327.256 -80.8773 324.212 -78.5577 324.863L-44.667 334.206C-42.7689 334.73 -41.212 332.698 -42.1938 330.997L-60.0052 300.668C-61.2073 298.586 -58.675 296.361 -56.7827 297.836L-29.0384 319.447C-27.485 320.656 -25.2652 319.374 -25.5341 317.424L-30.4061 282.584C-30.7376 280.208 -27.5273 279.117 -26.3426 281.209L-8.98203 311.799C-8.00025 313.5 -5.46216 313.167 -4.96702 311.262L3.90568 277.229C4.50077 274.896 7.88892 275.115 8.1851 277.51L12.5129 312.411C12.7556 314.353 15.2447 315.02 16.4263 313.459L37.6273 285.398C39.0829 283.471 42.1253 284.976 41.4748 287.294L32.1278 321.185C31.6046 323.083 33.6364 324.639 35.3371 323.657L65.6701 305.844C67.7524 304.642 69.9765 307.173 68.5016 309.066L46.8862 336.81C45.6773 338.363 46.9594 340.584 48.9092 340.314L48.9192 340.331Z" stroke="#0C513F" stroke-opacity="0.5" stroke-width="0.668651" stroke-miterlimit="10"/>
</g>
</g>
<defs>
<clipPath id="clip0_467_6399">
<rect width="535" height="535" fill="white" transform="translate(98.3242) rotate(60)"/>
</clipPath>
</defs>
</svg>
