<svg width="32" height="32" viewBox="0 0 32 32" fill="none" xmlns="http://www.w3.org/2000/svg">
<path d="M14.6663 26.666C12.3251 26.6731 10.0667 25.8 8.339 24.2199C6.61136 22.6398 5.54067 20.4681 5.33929 18.1355C5.13792 15.8029 5.82057 13.4798 7.25185 11.627C8.68312 9.77418 10.7585 8.52695 13.0663 8.13268C20.6663 6.66602 22.6663 5.97268 25.333 2.66602C26.6663 5.33268 27.9996 8.23935 27.9996 13.3327C27.9996 20.666 21.6263 26.666 14.6663 26.666Z" stroke="#00C896" stroke-width="3.33333" stroke-linecap="round" stroke-linejoin="round"/>
<path d="M2.66699 28C2.66699 24 5.13366 20.8533 9.44033 20C12.667 19.36 16.0003 17.3333 17.3337 16" stroke="#00C896" stroke-width="3.33333" stroke-linecap="round" stroke-linejoin="round"/>
</svg>
