<svg width="65" height="64" viewBox="0 0 65 64" fill="none" xmlns="http://www.w3.org/2000/svg">
<rect x="0.494141" y="-0.00427246" width="64" height="64" rx="32" fill="#FFB74D"/>
<path d="M35.884 24.3858C36.0097 24.5116 36.1667 24.6016 36.3388 24.6466C36.5109 24.6915 36.6918 24.6897 36.863 24.6414C37.0342 24.5931 37.1894 24.5001 37.3126 24.3718C37.4358 24.2435 37.5226 24.0847 37.564 23.9118C37.6678 23.4797 37.8849 23.083 38.193 22.7627C38.501 22.4424 38.8889 22.21 39.3166 22.0895C39.7443 21.9689 40.1965 21.9645 40.6265 22.0768C41.0564 22.1891 41.4487 22.414 41.7629 22.7282C42.0771 23.0425 42.3018 23.4349 42.4139 23.8649C42.5261 24.2949 42.5216 24.7471 42.4009 25.1747C42.2802 25.6024 42.0476 25.9902 41.7272 26.2982C41.4068 26.6061 41.0101 26.8231 40.578 26.9268C40.405 26.9682 40.2462 27.0549 40.118 27.1782C39.9897 27.3014 39.8966 27.4566 39.8483 27.6277C39.8 27.7989 39.7983 27.9799 39.8432 28.152C39.8881 28.3241 39.9782 28.4811 40.104 28.6068L41.787 30.2888C42.0112 30.5129 42.189 30.779 42.3103 31.0719C42.4316 31.3648 42.4941 31.6787 42.4941 31.9958C42.4941 32.3128 42.4316 32.6267 42.3103 32.9196C42.189 33.2125 42.0112 33.4786 41.787 33.7028L40.104 35.3858C39.9783 35.5116 39.8213 35.6016 39.6492 35.6466C39.4771 35.6915 39.2962 35.6897 39.125 35.6414C38.9538 35.5931 38.7986 35.5001 38.6754 35.3718C38.5522 35.2435 38.4654 35.0847 38.424 34.9118C38.3202 34.4797 38.1031 34.083 37.795 33.7627C37.487 33.4424 37.0991 33.21 36.6714 33.0895C36.2437 32.9689 35.7915 32.9645 35.3615 33.0768C34.9316 33.1891 34.5393 33.414 34.2251 33.7282C33.9109 34.0425 33.6862 34.4349 33.5741 34.8649C33.4619 35.2949 33.4664 35.7471 33.5871 36.1747C33.7078 36.6024 33.9404 36.9902 34.2608 37.2982C34.5812 37.6061 34.9779 37.8231 35.41 37.9268C35.583 37.9682 35.7418 38.0549 35.87 38.1782C35.9983 38.3014 36.0914 38.4566 36.1397 38.6277C36.188 38.7989 36.1897 38.9799 36.1448 39.152C36.0999 39.3241 36.0098 39.4811 35.884 39.6068L34.201 41.2888C33.9768 41.5129 33.7107 41.6908 33.4178 41.8121C33.1249 41.9334 32.811 41.9958 32.494 41.9958C32.177 41.9958 31.8631 41.9334 31.5702 41.8121C31.2773 41.6908 31.0112 41.5129 30.787 41.2888L29.104 39.6058C28.9783 39.4799 28.8213 39.3899 28.6492 39.345C28.4771 39.3 28.2962 39.3018 28.125 39.3501C27.9538 39.3984 27.7986 39.4915 27.6754 39.6197C27.5522 39.748 27.4654 39.9068 27.424 40.0798C27.3202 40.5119 27.1031 40.9085 26.795 41.2288C26.487 41.5491 26.0991 41.7815 25.6714 41.902C25.2437 42.0226 24.7915 42.027 24.3615 41.9147C23.9316 41.8024 23.5393 41.5775 23.2251 41.2633C22.9109 40.949 22.6862 40.5566 22.5741 40.1266C22.4619 39.6966 22.4664 39.2445 22.5871 38.8168C22.7078 38.3891 22.9404 38.0013 23.2608 37.6933C23.5812 37.3854 23.9779 37.1684 24.41 37.0648C24.583 37.0234 24.7418 36.9366 24.87 36.8134C24.9983 36.6901 25.0914 36.5349 25.1397 36.3638C25.188 36.1926 25.1897 36.0116 25.1448 35.8395C25.0999 35.6674 25.0098 35.5105 24.884 35.3848L23.201 33.7028C22.9768 33.4786 22.799 33.2125 22.6777 32.9196C22.5564 32.6267 22.4939 32.3128 22.4939 31.9958C22.4939 31.6787 22.5564 31.3648 22.6777 31.0719C22.799 30.779 22.9768 30.5129 23.201 30.2888L24.884 28.6058C25.0097 28.4799 25.1667 28.3899 25.3388 28.345C25.5109 28.3 25.6918 28.3018 25.863 28.3501C26.0342 28.3984 26.1894 28.4915 26.3126 28.6197C26.4358 28.748 26.5226 28.9068 26.564 29.0798C26.6678 29.5119 26.8849 29.9085 27.193 30.2288C27.501 30.5491 27.8889 30.7815 28.3166 30.902C28.7443 31.0226 29.1965 31.027 29.6265 30.9147C30.0564 30.8024 30.4487 30.5776 30.7629 30.2633C31.0771 29.949 31.3018 29.5566 31.4139 29.1266C31.5261 28.6966 31.5216 28.2445 31.4009 27.8168C31.2802 27.3891 31.0476 27.0013 30.7272 26.6933C30.4068 26.3854 30.0101 26.1684 29.578 26.0648C29.405 26.0234 29.2462 25.9366 29.118 25.8134C28.9897 25.6901 28.8966 25.5349 28.8483 25.3638C28.8 25.1926 28.7983 25.0116 28.8432 24.8395C28.8881 24.6674 28.9782 24.5105 29.104 24.3848L30.787 22.7028C31.0112 22.4786 31.2773 22.3008 31.5702 22.1794C31.8631 22.0581 32.177 21.9957 32.494 21.9957C32.811 21.9957 33.1249 22.0581 33.4178 22.1794C33.7107 22.3008 33.9768 22.4786 34.201 22.7028L35.884 24.3858Z" stroke="#F5F9FD" stroke-width="2" stroke-linecap="round" stroke-linejoin="round"/>
</svg>
