<svg width="65" height="64" viewBox="0 0 65 64" fill="none" xmlns="http://www.w3.org/2000/svg">
<rect x="0.0175781" y="-0.00427246" width="64" height="64" rx="32" fill="#E57373"/>
<path d="M32.0176 41.9957C37.5404 41.9957 42.0176 37.5186 42.0176 31.9957C42.0176 26.4729 37.5404 21.9957 32.0176 21.9957C26.4947 21.9957 22.0176 26.4729 22.0176 31.9957C22.0176 37.5186 26.4947 41.9957 32.0176 41.9957Z" stroke="#F5F9FD" stroke-width="2" stroke-linecap="round" stroke-linejoin="round"/>
<path d="M32.0176 21.9957C29.4498 24.6919 28.0176 28.2725 28.0176 31.9957C28.0176 35.719 29.4498 39.2996 32.0176 41.9957C34.5853 39.2996 36.0176 35.719 36.0176 31.9957C36.0176 28.2725 34.5853 24.6919 32.0176 21.9957Z" stroke="#F5F9FD" stroke-width="2" stroke-linecap="round" stroke-linejoin="round"/>
<path d="M22.0176 31.9957H42.0176" stroke="#F5F9FD" stroke-width="2" stroke-linecap="round" stroke-linejoin="round"/>
</svg>
