<svg width="65" height="64" viewBox="0 0 65 64" fill="none" xmlns="http://www.w3.org/2000/svg">
<rect x="0.52832" y="-0.00469971" width="64" height="64" rx="32" fill="#81C784"/>
<path d="M27.5281 38.9953H25.3431C25.0277 38.9962 24.7173 38.9156 24.4423 38.7612C24.1672 38.6069 23.9367 38.384 23.7731 38.1143C23.616 37.8434 23.5329 37.536 23.5322 37.2228C23.5315 36.9097 23.6132 36.6019 23.7691 36.3303L27.7241 29.4953" stroke="#F5F9FD" stroke-width="2" stroke-linecap="round" stroke-linejoin="round"/>
<path d="M31.5283 38.9953H39.7313C40.0452 38.9929 40.3533 38.9098 40.6258 38.7539C40.8983 38.598 41.1261 38.3747 41.2873 38.1053C41.4422 37.8352 41.5237 37.5292 41.5237 37.2178C41.5237 36.9064 41.4422 36.6005 41.2873 36.3303L40.0613 34.2103" stroke="#F5F9FD" stroke-width="2" stroke-linecap="round" stroke-linejoin="round"/>
<path d="M34.5283 35.9953L31.5283 38.9953L34.5283 41.9953" stroke="#F5F9FD" stroke-width="2" stroke-linecap="round" stroke-linejoin="round"/>
<path d="M28.8209 33.5913L27.7239 29.4953L23.6279 30.5933" stroke="#F5F9FD" stroke-width="2" stroke-linecap="round" stroke-linejoin="round"/>
<path d="M29.8721 25.8063L30.9651 23.9143C31.122 23.6407 31.347 23.4123 31.6183 23.2513C31.8895 23.0903 32.1977 23.0021 32.5131 22.9953C32.826 22.9947 33.1336 23.0765 33.405 23.2323C33.6763 23.3882 33.9019 23.6127 34.0591 23.8833L38.0021 30.7263" stroke="#F5F9FD" stroke-width="2" stroke-linecap="round" stroke-linejoin="round"/>
<path d="M33.9062 29.6283L38.0023 30.7263L39.0992 26.6303" stroke="#F5F9FD" stroke-width="2" stroke-linecap="round" stroke-linejoin="round"/>
</svg>
