<svg xmlns="http://www.w3.org/2000/svg" width="176" height="91" viewBox="0 0 176 91" fill="none" class=" in-svg replaced-svg">
<path d="M72.401 61.5601C75.4653 64.6562 79.0953 67.0283 83.3019 68.688C87.5049 70.3478 92.0996 71.1757 97.0859 71.1757C101.47 71.1757 105.735 70.2207 109.88 68.3068C114.025 66.3929 117.448 63.4277 120.15 59.4113L108.44 50.1307C106.997 52.4258 105.165 54.2126 102.942 55.4872C100.72 56.7619 98.1665 57.4011 95.2835 57.4011C92.7632 57.4011 90.4024 56.862 88.2121 55.7761C86.0181 54.694 84.1142 53.1767 82.4896 51.232C80.8686 49.2873 79.5921 46.9922 78.6601 44.3428C77.7282 41.6973 77.264 38.7783 77.264 35.5898C77.264 32.4013 77.7282 29.5632 78.6601 26.883C79.5921 24.2027 80.8795 21.8922 82.5331 19.9475C84.1831 18.0028 86.1378 16.4894 88.3898 15.4035C90.6418 14.3214 93.0896 13.7784 95.7332 13.7784C98.3769 13.7784 100.701 14.2559 102.714 15.2148C104.727 16.1737 106.42 17.5446 107.805 19.3275L118.616 9.95066C117.234 8.10224 115.671 6.53878 113.93 5.26414C112.19 3.9895 110.373 2.96902 108.48 2.2027C106.587 1.43638 104.665 0.877997 102.714 0.527568C100.763 0.177138 98.8846 0 97.0822 0C92.0959 0 87.5013 0.827938 83.2983 2.48766C79.0953 4.14739 75.4617 6.52338 72.3974 9.61563C69.3331 12.7117 66.9469 16.4548 65.2352 20.8563C63.5236 25.2579 62.6677 30.1677 62.6677 35.5898C62.6677 41.0118 63.5236 45.9217 65.2352 50.3232C66.9469 54.7248 69.3331 58.4717 72.3974 61.5639L72.401 61.5601Z" fill="#228C3E"></path>
<path d="M22.0014 56.3652H6.98444L1.66089 69.4544H17.1529L22.0014 56.3652Z" fill="#034E7E"></path>
<path d="M60.9743 69.4543H68.5969L40.8477 1.7251H29.2251L12.638 42.4789H11.1077C4.97542 42.4789 0 47.7584 0 54.2741V55.1098H47.2411L49.6345 61.3597C51.5094 66.258 55.9916 69.4581 60.9706 69.4581L60.9743 69.4543ZM26.8861 42.475L34.6321 21.43L42.4687 42.475H26.8825H26.8861Z" fill="#034E7E"></path>
<path d="M154.245 62.4803C156.356 66.7664 160.534 69.4543 165.088 69.4543H173.737L159.884 40.85C167.797 39.2827 172.091 30.2562 172.094 22.2926C172.094 18.3378 171.449 15.0376 170.158 12.392C168.863 9.74647 167.123 7.64004 164.932 6.07659C162.742 4.51313 160.189 3.39638 157.277 2.73018C154.361 2.06012 151.286 1.7251 148.044 1.7251H138.605V14.3521H146.601C147.863 14.3521 149.154 14.4484 150.474 14.6409C151.794 14.8335 152.965 15.1993 153.988 15.7423C155.007 16.2853 155.848 17.067 156.508 18.0875C157.168 19.1079 157.498 20.4789 157.498 22.2002C157.498 24.0525 157.121 25.485 156.37 26.5055C155.62 27.526 154.673 28.2769 153.535 28.7544C152.392 29.2319 151.116 29.5207 149.705 29.617C148.291 29.7132 146.956 29.7595 145.694 29.7595H137.408V1.72895H123.352V69.4581H137.408V42.3865H145.919L154.242 62.488L154.245 62.4803Z" fill="#228C3E"></path>
<path d="M3.56481 84.6382L1.0481 90.7611H1.61019L2.26294 89.136H5.31636L5.94373 90.7611H6.54571L4.11965 84.6382H3.56481ZM2.47327 88.6161L3.81866 85.262L5.12054 88.6161H2.47327Z" fill="#76797C"></path>
<path d="M6.29175 85.1581H8.26451V90.7611H8.80121V85.1581H10.774V84.6382H6.29175V85.1581Z" fill="#76797C"></path>
<path d="M23.2271 89.7097H23.2053L21.0186 81.5767H19.9923L17.8056 89.7097H17.7802L15.6298 81.5767H14.7993L17.316 90.761H18.306L20.4928 82.5894H20.5181L22.7049 90.761H23.6912L26.208 81.5767H25.3775L23.2271 89.7097Z" fill="#76797C"></path>
<path d="M28.5035 81.5767H27.6985V90.761H28.5035V81.5767Z" fill="#76797C"></path>
<path d="M37.4463 89.6211H37.4245L32.159 81.5767H31.1218V90.761H31.9269V82.7204H31.9523L37.2142 90.761H38.255V81.5767H37.4463V89.6211Z" fill="#76797C"></path>
<path d="M44.7535 86.1708C45.0146 86.0861 45.2539 85.9513 45.4679 85.7742C45.6818 85.597 45.8631 85.366 46.0046 85.081C46.146 84.7961 46.2185 84.4341 46.2185 83.9912C46.2185 83.5946 46.1569 83.2557 46.0336 82.9784C45.9103 82.7012 45.758 82.474 45.5694 82.293C45.3808 82.112 45.1705 81.9734 44.9348 81.8771C44.6991 81.7808 44.467 81.7115 44.2385 81.6691C44.0101 81.6268 43.7997 81.5998 43.6039 81.5921C43.4081 81.5844 43.2521 81.5806 43.1397 81.5806H40.866V90.7649H41.671V86.4057H43.1724L45.602 90.7649H46.5195L44.0028 86.3557C44.2385 86.321 44.4887 86.2594 44.7462 86.1747L44.7535 86.1708ZM41.6747 85.6278V82.3585H43.3863C43.8106 82.3585 44.1551 82.4162 44.4198 82.5279C44.6846 82.6396 44.8913 82.7782 45.0363 82.9438C45.1814 83.1094 45.2829 83.2865 45.3373 83.4752C45.3917 83.6639 45.4171 83.8372 45.4171 83.9951C45.4171 84.153 45.3917 84.3224 45.3373 84.5149C45.2829 84.7036 45.185 84.8846 45.0363 85.0464C44.8913 85.2119 44.6846 85.3506 44.4198 85.4623C44.1551 85.5739 43.8106 85.6317 43.3863 85.6317H41.6747V85.6278Z" fill="#76797C"></path>
<path d="M55.4911 82.7128C55.0995 82.2853 54.628 81.9503 54.0804 81.7077C53.5292 81.4651 52.9273 81.3457 52.2672 81.3457C51.6072 81.3457 51.0016 81.4651 50.454 81.7077C49.9028 81.9503 49.435 82.2853 49.0434 82.7128C48.6517 83.1402 48.3471 83.6485 48.1259 84.2377C47.9047 84.8269 47.7959 85.47 47.7959 86.1708C47.7959 86.8717 47.9047 87.5187 48.1259 88.1117C48.3471 88.7047 48.6517 89.213 49.0434 89.6405C49.435 90.0679 49.9028 90.403 50.454 90.6379C51.0053 90.8766 51.6072 90.996 52.2672 90.996C52.9273 90.996 53.5329 90.8766 54.0804 90.6379C54.6317 90.3991 55.0995 90.0679 55.4911 89.6405C55.8828 89.213 56.1874 88.7009 56.4086 88.1117C56.6298 87.5187 56.7386 86.8717 56.7386 86.1708C56.7386 85.47 56.6298 84.8269 56.4086 84.2377C56.1874 83.6485 55.8828 83.1402 55.4911 82.7128ZM55.6724 87.7651C55.502 88.258 55.2554 88.6855 54.9399 89.0475C54.6244 89.4094 54.2364 89.6944 53.7867 89.9023C53.3334 90.1103 52.8257 90.2143 52.2672 90.2143C51.7088 90.2143 51.1975 90.1103 50.7478 89.9023C50.2981 89.6944 49.9101 89.4094 49.5946 89.0475C49.2755 88.6855 49.0325 88.258 48.8621 87.7651C48.6916 87.2722 48.6046 86.7408 48.6046 86.1708C48.6046 85.6009 48.6916 85.0695 48.8621 84.5766C49.0325 84.0837 49.2791 83.6562 49.5946 83.2942C49.9137 82.9323 50.2981 82.6473 50.7478 82.4393C51.1975 82.2314 51.7052 82.1274 52.2672 82.1274C52.8293 82.1274 53.337 82.2314 53.7867 82.4393C54.24 82.6473 54.6244 82.9323 54.9399 83.2942C55.2554 83.6562 55.502 84.0837 55.6724 84.5766C55.8429 85.0695 55.9299 85.6009 55.9299 86.1708C55.9299 86.7408 55.8429 87.2722 55.6724 87.7651Z" fill="#76797C"></path>
<path d="M64.7132 89.4326C64.5101 89.6097 64.2962 89.7561 64.0713 89.8716C63.8465 89.9871 63.618 90.0757 63.3823 90.1296C63.1466 90.1874 62.9182 90.2143 62.6969 90.2143C62.1348 90.2143 61.6272 90.1103 61.1775 89.9024C60.7278 89.6944 60.3398 89.4095 60.0243 89.0475C59.7052 88.6855 59.4622 88.2581 59.2917 87.7652C59.1213 87.2723 59.0343 86.7408 59.0343 86.1709C59.0343 85.601 59.1213 85.0696 59.2917 84.5766C59.4622 84.0837 59.7088 83.6563 60.0243 83.2943C60.3434 82.9323 60.7278 82.6473 61.1775 82.4394C61.6272 82.2315 62.1348 82.1275 62.6969 82.1275C63.1357 82.1275 63.5673 82.2276 63.9843 82.424C64.405 82.6242 64.7459 82.94 65.0178 83.3713L65.6778 82.7898C65.2934 82.27 64.8474 81.9003 64.3397 81.6808C63.832 81.4613 63.2844 81.3496 62.6969 81.3496C62.0369 81.3496 61.4313 81.469 60.8837 81.7116C60.3325 81.9542 59.8647 82.2892 59.4731 82.7167C59.0814 83.1441 58.7768 83.6524 58.5556 84.2416C58.3344 84.8308 58.2256 85.4739 58.2256 86.1748C58.2256 86.8756 58.3344 87.5226 58.5556 88.1156C58.7768 88.7086 59.0814 89.2169 59.4731 89.6444C59.8647 90.0718 60.3325 90.4069 60.8837 90.6418C61.435 90.8805 62.0369 90.9999 62.6969 90.9999C63.3569 90.9999 63.9227 90.869 64.4666 90.611C65.0106 90.3529 65.4929 89.9217 65.9099 89.3286L65.2499 88.7972C65.094 89.0475 64.9163 89.2631 64.7132 89.4403V89.4326Z" fill="#76797C"></path>
<path d="M73.8153 81.5767H72.702L68.5135 85.6239H68.441V81.5767H67.6323V90.761H68.441V86.0129H68.5135L72.8979 90.761H74.0583L69.4419 85.7818L73.8153 81.5767Z" fill="#76797C"></path>
<path d="M79.5668 81.5767H78.7617V90.761H79.5668V81.5767Z" fill="#76797C"></path>
<path d="M88.5095 89.6211H88.4841L83.2222 81.5767H82.1814V90.761H82.9865V82.7204H83.0118L88.2774 90.761H89.3145V81.5767H88.5095V89.6211Z" fill="#76797C"></path>
<path d="M90.8921 82.3545H93.8476V90.761H94.6527V82.3545H97.6118V81.5767H90.8921V82.3545Z" fill="#76797C"></path>
<path d="M99.9942 86.4018H104.194V85.6239H99.9942V82.3545H104.476V81.5767H99.1855V90.761H104.672V89.9831H99.9942V86.4018Z" fill="#76797C"></path>
<path d="M110.558 86.1708C110.819 86.0861 111.058 85.9513 111.272 85.7742C111.486 85.597 111.668 85.366 111.809 85.081C111.95 84.7961 112.023 84.4341 112.023 83.9912C112.023 83.5946 111.961 83.2557 111.842 82.9784C111.718 82.7012 111.566 82.474 111.378 82.293C111.189 82.112 110.979 81.9734 110.743 81.8771C110.507 81.7808 110.275 81.7115 110.047 81.6691C109.818 81.6268 109.608 81.5998 109.412 81.5921C109.216 81.5844 109.06 81.5806 108.948 81.5806H106.674V90.7649H107.479V86.4057H108.98L111.41 90.7649H112.328L109.811 86.3557C110.047 86.321 110.297 86.2594 110.554 86.1747L110.558 86.1708ZM107.479 85.6278V82.3585H109.191C109.615 82.3585 109.96 82.4162 110.224 82.5279C110.489 82.6396 110.696 82.7782 110.841 82.9438C110.986 83.1094 111.087 83.2865 111.142 83.4752C111.196 83.6639 111.222 83.8372 111.222 83.9951C111.222 84.153 111.196 84.3224 111.142 84.5149C111.087 84.7036 110.989 84.8846 110.841 85.0464C110.696 85.2119 110.489 85.3506 110.224 85.4623C109.96 85.5739 109.615 85.6317 109.191 85.6317H107.479V85.6278Z" fill="#76797C"></path>
<path d="M120.491 89.6211H120.465L115.2 81.5767H114.163V90.761H114.968V82.7204H114.993L120.259 90.761H121.296V81.5767H120.491V89.6211Z" fill="#76797C"></path>
<path d="M126.561 81.5767L122.786 90.761H123.627L124.603 88.3234H129.183L130.122 90.761H131.025L127.384 81.5767H126.554H126.561ZM124.926 87.5455L126.942 82.5124L128.897 87.5455H124.926Z" fill="#76797C"></path>
<path d="M130.656 82.3545H133.611V90.761H134.416V82.3545H137.372V81.5767H130.656V82.3545Z" fill="#76797C"></path>
<path d="M139.754 81.5767H138.949V90.761H139.754V81.5767Z" fill="#76797C"></path>
<path d="M149.502 82.7128C149.11 82.2853 148.639 81.9503 148.091 81.7077C147.54 81.4651 146.938 81.3457 146.278 81.3457C145.618 81.3457 145.012 81.4651 144.465 81.7077C143.914 81.9503 143.446 82.2853 143.054 82.7128C142.662 83.1402 142.358 83.6485 142.137 84.2377C141.915 84.8269 141.807 85.47 141.807 86.1708C141.807 86.8717 141.915 87.5187 142.137 88.1117C142.358 88.7047 142.662 89.213 143.054 89.6405C143.446 90.0679 143.914 90.403 144.465 90.6379C145.016 90.8766 145.618 90.996 146.278 90.996C146.938 90.996 147.544 90.8766 148.091 90.6379C148.642 90.3991 149.11 90.0679 149.502 89.6405C149.894 89.213 150.198 88.7009 150.419 88.1117C150.641 87.5225 150.749 86.8717 150.749 86.1708C150.749 85.47 150.641 84.8269 150.419 84.2377C150.198 83.6485 149.894 83.1402 149.502 82.7128ZM149.687 87.7651C149.516 88.258 149.27 88.6855 148.954 89.0475C148.635 89.4094 148.251 89.6944 147.801 89.9023C147.348 90.1103 146.84 90.2143 146.282 90.2143C145.723 90.2143 145.212 90.1103 144.762 89.9023C144.312 89.6944 143.924 89.4094 143.609 89.0475C143.293 88.6855 143.047 88.258 142.876 87.7651C142.706 87.2722 142.619 86.7408 142.619 86.1708C142.619 85.6009 142.706 85.0695 142.876 84.5766C143.047 84.0837 143.293 83.6562 143.609 83.2942C143.924 82.9323 144.312 82.6473 144.762 82.4393C145.212 82.2314 145.72 82.1274 146.282 82.1274C146.844 82.1274 147.351 82.2314 147.801 82.4393C148.254 82.6473 148.639 82.9323 148.954 83.2942C149.273 83.6562 149.516 84.0837 149.687 84.5766C149.857 85.0695 149.944 85.6009 149.944 86.1708C149.944 86.7408 149.857 87.2722 149.687 87.7651Z" fill="#76797C"></path>
<path d="M159.13 89.6211H159.105L153.839 81.5767H152.802V90.761H153.607V82.7204H153.632L158.898 90.761H159.935V81.5767H159.13V89.6211Z" fill="#76797C"></path>
<path d="M165.201 81.5767L161.426 90.761H162.267L163.242 88.3234H167.823L168.762 90.761H169.665L166.024 81.5767H165.193H165.201ZM163.565 87.5455L165.581 82.5124L167.536 87.5455H163.565Z" fill="#76797C"></path>
<path d="M171.967 89.9831V81.5767H171.162V90.761H176V89.9831H171.967Z" fill="#76797C"></path>
</svg>