<?xml version="1.0" encoding="UTF-8"?>
<svg xmlns="http://www.w3.org/2000/svg" version="1.1" xmlns:xlink="http://www.w3.org/1999/xlink" viewBox="0 0 1080 1350">
  <!-- Generator: Adobe Illustrator 30.0.0, SVG Export Plug-In . SVG Version: 2.1.1 Build 123)  -->
  <defs>
    <style>
      .st0 {
        fill: #7b8c9d;
      }

      .st1, .st2 {
        fill: #13304e;
      }

      .st3 {
        fill: #6c5f31;
      }

      .st4 {
        fill: none;
      }

      .st5 {
        fill: #919fad;
      }

      .st6 {
        fill: #fbb62d;
      }

      .st7 {
        isolation: isolate;
      }

      .st8 {
        fill: #38516a;
      }

      .st9 {
        fill: #f6ffc0;
      }

      .st10 {
        fill: #f0db18;
      }

      .st11 {
        fill: #6ea843;
      }

      .st2 {
        mix-blend-mode: multiply;
        opacity: .2;
      }

      .st12 {
        fill: #ffde25;
      }

      .st13 {
        clip-path: url(#clippath);
      }

      .st14 {
        fill: #a4cd49;
      }
    </style>
    <clipPath id="clippath">
      <rect class="st4" x="13.33" y="127.02" width="1053.34" height="1095.96" rx="28" ry="28"/>
    </clipPath>
  </defs>
  <g class="st7">
    <g id="Layer_1">
      <g class="st13">
        <rect class="st10" x="13.33" y="127.02" width="1053.34" height="1095.96" rx="28" ry="28"/>
        <circle class="st9" cx="114.57" cy="259.91" r="70.09"/>
        <g>
          <path class="st3" d="M84.36,226.63c1.18.38,1.95,1.13,2.08,2.41v51.75c.35,3.84,3.37,6.86,7.21,7.22h51.75c3.29.33,3.14,5.03-.12,5.2l-52.13-.02c-5.14-.47-9.84-4.12-11.33-9.08-.26-.85-.35-1.74-.58-2.6v-52.79c.34-1.09.99-1.74,2.08-2.08h1.04Z"/>
          <path class="st3" d="M118.78,230.82c4.44-.51,8.33,2.77,8.74,7.18l-.02,37.82c-1.38,9.37-14.5,9.17-15.59-.24l.02-37.82c.41-3.53,3.29-6.53,6.85-6.94ZM119.3,236.02c-1.2.16-2.08,1.18-2.18,2.37v36.67c.17,3.27,4.86,3.42,5.2.12v-36.67c-.08-1.64-1.39-2.71-3.02-2.5Z"/>
          <path class="st3" d="M98.5,246.43c4.37-.5,8.4,2.78,8.74,7.18.55,7.07-.43,14.84,0,21.98-1.12,9.55-14.49,9.55-15.61,0,.43-7.14-.55-14.92,0-21.98.28-3.62,3.24-6.76,6.87-7.18ZM99.02,251.63c-1.2.16-2.08,1.18-2.18,2.37v21.07c.17,3.27,4.86,3.42,5.2.12v-21.07c-.08-1.64-1.39-2.71-3.02-2.5Z"/>
          <path class="st3" d="M139.07,256.83c4.3-.49,8.35,2.71,8.74,7.05.33,3.73-.25,7.92,0,11.7-1.12,9.49-14.34,9.57-15.6.12.42-6.34-2.44-17.82,6.86-18.88ZM139.59,262.03c-1.16.15-2.03,1.11-2.16,2.26.2,3.48-.32,7.35-.02,10.78.28,3.23,4.54,3.41,5.17.35-.17-3.51.34-7.43.04-10.89-.14-1.65-1.35-2.72-3.03-2.5Z"/>
        </g>
        <g>
          <path class="st3" d="M263.78,241.7c-3.74,0-7.21-.64-10.4-1.91-3.19-1.27-5.96-3.06-8.32-5.36-2.35-2.3-4.18-5-5.47-8.1-1.3-3.1-1.94-6.49-1.94-10.19s.65-7.09,1.94-10.19c1.3-3.1,3.13-5.8,5.51-8.1,2.38-2.3,5.15-4.09,8.32-5.36,3.17-1.27,6.62-1.91,10.37-1.91,3.55,0,6.88.58,9.97,1.73,3.1,1.15,5.75,2.9,7.96,5.26l-2.3,2.38c-2.16-2.11-4.55-3.64-7.16-4.57-2.62-.94-5.39-1.4-8.32-1.4-3.22,0-6.2.55-8.96,1.66-2.76,1.1-5.16,2.66-7.2,4.68-2.04,2.02-3.62,4.37-4.75,7.06-1.13,2.69-1.69,5.62-1.69,8.78s.56,6.1,1.69,8.78c1.13,2.69,2.71,5.04,4.75,7.06,2.04,2.02,4.44,3.58,7.2,4.68,2.76,1.1,5.75,1.66,8.96,1.66,2.93,0,5.7-.47,8.32-1.4,2.62-.94,5-2.48,7.16-4.64l2.3,2.38c-2.21,2.35-4.86,4.12-7.96,5.29-3.1,1.18-6.42,1.76-9.97,1.76Z"/>
          <path class="st3" d="M301.65,241.63c-2.78,0-5.2-.44-7.24-1.33-2.04-.89-3.6-2.15-4.68-3.78-1.08-1.63-1.62-3.5-1.62-5.62,0-1.92.44-3.66,1.33-5.22.89-1.56,2.36-2.83,4.43-3.82,2.06-.98,4.82-1.48,8.28-1.48h13.82v2.81h-13.75c-3.89,0-6.61.72-8.17,2.16-1.56,1.44-2.34,3.24-2.34,5.4,0,2.4.91,4.32,2.74,5.76,1.82,1.44,4.39,2.16,7.7,2.16s5.84-.72,8.03-2.16c2.18-1.44,3.8-3.53,4.86-6.26l1.01,2.45c-1.01,2.74-2.72,4.91-5.15,6.52-2.42,1.61-5.51,2.41-9.25,2.41ZM315.19,241.34v-8.57l-.14-1.3v-14.11c0-3.5-.95-6.17-2.84-7.99-1.9-1.82-4.67-2.74-8.32-2.74-2.59,0-5,.44-7.24,1.33-2.23.89-4.14,2.03-5.72,3.42l-1.8-2.59c1.87-1.68,4.13-2.99,6.77-3.92,2.64-.94,5.4-1.4,8.28-1.4,4.66,0,8.23,1.18,10.73,3.53,2.5,2.35,3.74,5.86,3.74,10.51v23.83h-3.46Z"/>
          <path class="st3" d="M333.47,241.34v-37.58h3.46v10.3l-.36-1.15c1.06-3.02,2.83-5.35,5.33-6.98,2.5-1.63,5.62-2.45,9.36-2.45v3.53c-.14,0-.29-.01-.43-.04-.14-.02-.29-.04-.43-.04-4.18,0-7.44,1.31-9.79,3.92-2.35,2.62-3.53,6.25-3.53,10.91v19.58h-3.6Z"/>
          <path class="st3" d="M361.19,241.34v-53.42h3.6v28.01l-.72,6.55.58,6.55v12.31h-3.46ZM380.06,241.63c-3.31,0-6.3-.77-8.96-2.3-2.66-1.54-4.78-3.74-6.34-6.62-1.56-2.88-2.34-6.26-2.34-10.15s.78-7.39,2.34-10.22c1.56-2.83,3.67-5.02,6.34-6.55,2.66-1.54,5.65-2.3,8.96-2.3,3.55,0,6.73.8,9.54,2.41,2.81,1.61,5.02,3.84,6.62,6.7,1.61,2.86,2.41,6.18,2.41,9.97s-.8,7.06-2.41,9.94c-1.61,2.88-3.82,5.12-6.62,6.73-2.81,1.61-5.99,2.41-9.54,2.41ZM379.84,238.39c2.88,0,5.47-.66,7.78-1.98,2.3-1.32,4.12-3.18,5.44-5.58,1.32-2.4,1.98-5.16,1.98-8.28s-.66-5.94-1.98-8.32c-1.32-2.38-3.13-4.22-5.44-5.54-2.3-1.32-4.9-1.98-7.78-1.98s-5.46.66-7.74,1.98c-2.28,1.32-4.08,3.17-5.4,5.54-1.32,2.38-1.98,5.15-1.98,8.32s.66,5.88,1.98,8.28c1.32,2.4,3.12,4.26,5.4,5.58,2.28,1.32,4.86,1.98,7.74,1.98Z"/>
          <path class="st3" d="M424.48,241.63c-3.6,0-6.8-.82-9.61-2.45-2.81-1.63-5.04-3.89-6.7-6.77-1.66-2.88-2.48-6.17-2.48-9.86s.83-7.04,2.48-9.9c1.66-2.86,3.89-5.1,6.7-6.73,2.81-1.63,6.01-2.45,9.61-2.45s6.82.82,9.65,2.45c2.83,1.63,5.06,3.88,6.7,6.73,1.63,2.86,2.45,6.16,2.45,9.9s-.82,6.98-2.45,9.86c-1.63,2.88-3.86,5.14-6.7,6.77-2.83,1.63-6.05,2.45-9.65,2.45ZM424.48,238.39c2.88,0,5.47-.66,7.78-1.98,2.3-1.32,4.1-3.18,5.4-5.58,1.3-2.4,1.94-5.16,1.94-8.28s-.65-5.94-1.94-8.32-3.1-4.22-5.4-5.54c-2.3-1.32-4.9-1.98-7.78-1.98s-5.46.66-7.74,1.98c-2.28,1.32-4.08,3.17-5.4,5.54-1.32,2.38-1.98,5.15-1.98,8.32s.66,5.88,1.98,8.28c1.32,2.4,3.12,4.26,5.4,5.58,2.28,1.32,4.86,1.98,7.74,1.98Z"/>
          <path class="st3" d="M454.43,241.34v-37.58h3.46v10.44l-.5-1.15c1.15-2.98,3.05-5.32,5.69-7.02,2.64-1.7,5.88-2.56,9.72-2.56,3.07,0,5.75.59,8.03,1.76,2.28,1.18,4.06,2.95,5.33,5.33,1.27,2.38,1.91,5.32,1.91,8.82v21.96h-3.6v-21.67c0-4.22-1.07-7.44-3.2-9.65-2.14-2.21-5.12-3.31-8.96-3.31-2.93,0-5.47.6-7.63,1.8-2.16,1.2-3.8,2.88-4.93,5.04-1.13,2.16-1.69,4.75-1.69,7.78v20.02h-3.6Z"/>
          <path class="st3" d="M263.78,328.6c-3.89,0-7.5-.64-10.84-1.91-3.34-1.27-6.23-3.08-8.68-5.44-2.45-2.35-4.36-5.11-5.72-8.28-1.37-3.17-2.05-6.65-2.05-10.44s.68-7.27,2.05-10.44c1.37-3.17,3.29-5.93,5.76-8.28,2.47-2.35,5.38-4.16,8.71-5.44,3.34-1.27,6.95-1.91,10.84-1.91,4.37,0,8.33.76,11.88,2.27,3.55,1.51,6.53,3.73,8.93,6.66l-7.56,6.91c-1.68-1.97-3.59-3.46-5.72-4.46-2.14-1.01-4.45-1.51-6.95-1.51-2.35,0-4.51.4-6.48,1.19-1.97.79-3.67,1.91-5.11,3.35-1.44,1.44-2.56,3.14-3.35,5.11-.79,1.97-1.19,4.15-1.19,6.55s.4,4.58,1.19,6.55c.79,1.97,1.91,3.67,3.35,5.11s3.14,2.56,5.11,3.35c1.97.79,4.13,1.19,6.48,1.19,2.5,0,4.81-.52,6.95-1.55,2.14-1.03,4.04-2.53,5.72-4.5l7.56,6.91c-2.4,2.93-5.38,5.16-8.93,6.7-3.55,1.54-7.54,2.3-11.95,2.3Z"/>
          <path class="st3" d="M302.66,328.31c-2.98,0-5.54-.52-7.7-1.55-2.16-1.03-3.83-2.44-5-4.21-1.18-1.78-1.76-3.77-1.76-5.98s.56-4.26,1.69-6.01c1.13-1.75,2.92-3.11,5.36-4.07,2.45-.96,5.66-1.44,9.65-1.44h10.22v6.48h-9.07c-2.64,0-4.45.43-5.44,1.3-.98.86-1.48,1.94-1.48,3.24,0,1.44.56,2.58,1.69,3.42,1.13.84,2.65,1.26,4.57,1.26s3.64-.43,5.15-1.3c1.51-.86,2.58-2.18,3.2-3.96l1.73,5.26c-.82,2.4-2.3,4.26-4.46,5.58-2.16,1.32-4.94,1.98-8.35,1.98ZM314.47,327.74v-7.56l-.72-1.66v-13.54c0-2.4-.73-4.27-2.2-5.62-1.46-1.34-3.71-2.02-6.73-2.02-2.06,0-4.09.32-6.08.97-1.99.65-3.71,1.52-5.15,2.63l-3.96-7.85c2.11-1.54,4.66-2.7,7.63-3.49,2.98-.79,6-1.19,9.07-1.19,5.9,0,10.49,1.39,13.75,4.18,3.26,2.78,4.9,7.13,4.9,13.03v22.1h-10.51Z"/>
          <path class="st3" d="M335.13,327.74v-53.42h11.23v53.42h-11.23Z"/>
          <path class="st3" d="M375.52,328.31c-4.18,0-7.88-.85-11.12-2.56-3.24-1.7-5.78-4.07-7.63-7.09-1.85-3.02-2.77-6.46-2.77-10.3s.92-7.32,2.77-10.3c1.85-2.98,4.39-5.33,7.63-7.06,3.24-1.73,6.95-2.59,11.12-2.59s7.64.85,10.69,2.56c3.05,1.7,5.24,4.12,6.59,7.24l-8.64,4.75c-1.06-1.82-2.33-3.16-3.82-4-1.49-.84-3.12-1.26-4.9-1.26-1.87,0-3.58.42-5.11,1.26-1.54.84-2.76,2.05-3.67,3.64-.91,1.58-1.37,3.5-1.37,5.76s.46,4.19,1.37,5.8c.91,1.61,2.14,2.83,3.67,3.67,1.54.84,3.24,1.26,5.11,1.26,1.78,0,3.41-.42,4.9-1.26,1.49-.84,2.76-2.2,3.82-4.07l8.64,4.75c-1.34,3.07-3.54,5.47-6.59,7.2-3.05,1.73-6.61,2.59-10.69,2.59Z"/>
          <path class="st3" d="M415.7,328.31c-3.26,0-6.14-.62-8.64-1.87-2.5-1.25-4.44-3.17-5.83-5.76-1.39-2.59-2.09-5.86-2.09-9.79v-21.89h11.23v20.16c0,3.27.68,5.65,2.05,7.16,1.37,1.51,3.3,2.27,5.8,2.27,1.73,0,3.26-.38,4.61-1.15,1.34-.77,2.41-1.92,3.2-3.46.79-1.54,1.19-3.46,1.19-5.76v-19.22h11.16v38.74h-10.66v-10.73l1.94,3.17c-1.34,2.69-3.26,4.72-5.76,6.08-2.5,1.37-5.23,2.05-8.21,2.05Z"/>
          <path class="st3" d="M448.82,327.74v-53.42h11.23v53.42h-11.23Z"/>
          <path class="st3" d="M482.44,328.31c-2.98,0-5.54-.52-7.7-1.55-2.16-1.03-3.83-2.44-5-4.21-1.18-1.78-1.76-3.77-1.76-5.98s.56-4.26,1.69-6.01c1.13-1.75,2.92-3.11,5.36-4.07,2.45-.96,5.66-1.44,9.65-1.44h10.22v6.48h-9.07c-2.64,0-4.45.43-5.44,1.3-.98.86-1.48,1.94-1.48,3.24,0,1.44.56,2.58,1.69,3.42,1.13.84,2.65,1.26,4.57,1.26s3.64-.43,5.15-1.3c1.51-.86,2.58-2.18,3.2-3.96l1.73,5.26c-.82,2.4-2.3,4.26-4.46,5.58-2.16,1.32-4.94,1.98-8.35,1.98ZM494.25,327.74v-7.56l-.72-1.66v-13.54c0-2.4-.73-4.27-2.2-5.62-1.46-1.34-3.71-2.02-6.73-2.02-2.06,0-4.09.32-6.08.97-1.99.65-3.71,1.52-5.15,2.63l-3.96-7.85c2.11-1.54,4.66-2.7,7.63-3.49,2.98-.79,6-1.19,9.07-1.19,5.9,0,10.49,1.39,13.75,4.18,3.26,2.78,4.9,7.13,4.9,13.03v22.1h-10.51Z"/>
          <path class="st3" d="M510.3,297.64v-8.64h26.86v8.64h-26.86ZM530.75,328.31c-4.56,0-8.11-1.16-10.66-3.49-2.54-2.33-3.82-5.8-3.82-10.4v-33.98h11.3v33.77c0,1.63.42,2.9,1.26,3.82.84.91,1.98,1.37,3.42,1.37,1.82,0,3.36-.48,4.61-1.44l2.95,7.92c-1.1.82-2.46,1.43-4.07,1.84-1.61.41-3.28.61-5,.61Z"/>
          <path class="st3" d="M563.37,328.31c-4.08,0-7.72-.86-10.91-2.59-3.19-1.73-5.7-4.09-7.52-7.09-1.82-3-2.74-6.42-2.74-10.26s.91-7.33,2.74-10.33c1.82-3,4.33-5.35,7.52-7.06,3.19-1.7,6.83-2.56,10.91-2.56s7.8.85,11.02,2.56c3.22,1.7,5.74,4.06,7.56,7.06,1.82,3,2.74,6.44,2.74,10.33s-.91,7.32-2.74,10.3c-1.83,2.98-4.34,5.33-7.56,7.06s-6.89,2.59-11.02,2.59ZM563.37,319.1c1.92,0,3.61-.42,5.08-1.26,1.46-.84,2.64-2.08,3.53-3.71.89-1.63,1.33-3.55,1.33-5.76s-.45-4.18-1.33-5.76c-.89-1.58-2.06-2.8-3.53-3.64-1.46-.84-3.13-1.26-5-1.26s-3.55.42-5.04,1.26c-1.49.84-2.68,2.05-3.56,3.64-.89,1.58-1.33,3.5-1.33,5.76s.44,4.13,1.33,5.76c.89,1.63,2.08,2.87,3.56,3.71,1.49.84,3.14,1.26,4.97,1.26Z"/>
          <path class="st3" d="M592.17,327.74v-38.74h10.73v11.02l-1.51-3.24c1.15-2.74,3-4.81,5.54-6.23,2.54-1.42,5.64-2.12,9.29-2.12v10.44c-.43-.1-.85-.17-1.26-.22-.41-.05-.8-.07-1.19-.07-3.17,0-5.69.89-7.56,2.66-1.87,1.78-2.81,4.51-2.81,8.21v18.29h-11.23Z"/>
        </g>
        <g>
          <path class="st3" d="M238.93,440.03v-30.1h12.56c3.24,0,5.78.66,7.61,1.98,1.83,1.32,2.75,3.23,2.75,5.72,0,1.63-.39,3.01-1.16,4.13-.77,1.12-1.84,1.96-3.2,2.52-1.36.56-2.89.84-4.58.84l.77-.86c2.06,0,3.83.3,5.29.9,1.46.6,2.57,1.48,3.33,2.62.76,1.15,1.14,2.58,1.14,4.3,0,2.52-.92,4.48-2.75,5.87-1.83,1.39-4.62,2.09-8.34,2.09h-13.42ZM241.12,438.14h11.22c2.9,0,5.1-.49,6.62-1.48,1.52-.99,2.28-2.57,2.28-4.75s-.76-3.72-2.28-4.71c-1.52-.99-3.73-1.48-6.62-1.48h-11.48v-1.89h10.53c2.61,0,4.63-.5,6.06-1.5,1.43-1,2.15-2.51,2.15-4.52s-.72-3.47-2.15-4.47c-1.43-1-3.45-1.5-6.06-1.5h-10.28v26.32Z"/>
          <path class="st3" d="M279.69,440.21c-1.92,0-3.58-.35-4.99-1.05-1.4-.7-2.49-1.76-3.25-3.18-.76-1.42-1.14-3.17-1.14-5.27v-13.11h2.15v12.94c0,2.52.65,4.44,1.93,5.76,1.29,1.32,3.11,1.98,5.46,1.98,1.69,0,3.15-.36,4.39-1.07,1.23-.72,2.18-1.73,2.84-3.03.66-1.3.99-2.84.99-4.62v-11.95h2.15v22.45h-2.06v-6.23l.3.73c-.66,1.75-1.76,3.13-3.29,4.15-1.53,1.02-3.36,1.53-5.48,1.53Z"/>
          <path class="st3" d="M300.42,412.13c-.49,0-.9-.17-1.25-.52s-.52-.75-.52-1.2c0-.49.17-.9.52-1.25s.76-.52,1.25-.52c.52,0,.94.17,1.27.49.33.33.49.74.49,1.23s-.17.9-.49,1.25c-.33.34-.75.52-1.27.52ZM299.34,440.03v-22.45h2.15v22.45h-2.15Z"/>
          <path class="st3" d="M310.56,440.03v-31.91h2.15v31.91h-2.15Z"/>
          <path class="st3" d="M317.53,419.44v-1.85h13.42v1.85h-13.42ZM327.76,440.21c-1.98,0-3.49-.54-4.54-1.63-1.05-1.09-1.57-2.58-1.57-4.47v-21.41h2.15v21.2c0,1.43.36,2.54,1.07,3.31.72.77,1.75,1.16,3.1,1.16s2.56-.42,3.48-1.25l.9,1.5c-.57.54-1.27.95-2.09,1.2-.82.26-1.66.39-2.52.39Z"/>
          <path class="st3" d="M358.16,440.21c-2.15,0-4.06-.49-5.74-1.46-1.68-.97-3.01-2.32-4-4.04-.99-1.72-1.48-3.68-1.48-5.89s.49-4.21,1.48-5.91c.99-1.71,2.32-3.05,4-4.02,1.68-.97,3.59-1.46,5.74-1.46s4.07.49,5.76,1.46,3.02,2.31,4,4.02c.97,1.71,1.46,3.68,1.46,5.91s-.49,4.17-1.46,5.89c-.97,1.72-2.31,3.07-4,4.04-1.69.98-3.61,1.46-5.76,1.46ZM358.16,438.27c1.72,0,3.27-.39,4.64-1.18,1.38-.79,2.45-1.9,3.23-3.33.77-1.43,1.16-3.08,1.16-4.95s-.39-3.55-1.16-4.97c-.77-1.42-1.85-2.52-3.23-3.31-1.38-.79-2.92-1.18-4.64-1.18s-3.26.39-4.62,1.18c-1.36.79-2.44,1.89-3.23,3.31-.79,1.42-1.18,3.07-1.18,4.97s.39,3.51,1.18,4.95c.79,1.43,1.86,2.54,3.23,3.33,1.36.79,2.9,1.18,4.62,1.18Z"/>
          <path class="st3" d="M376.05,440.03v-22.45h2.06v6.23l-.3-.69c.69-1.78,1.82-3.17,3.4-4.19s3.51-1.53,5.81-1.53c1.83,0,3.43.35,4.79,1.05,1.36.7,2.42,1.76,3.18,3.18.76,1.42,1.14,3.18,1.14,5.27v13.12h-2.15v-12.94c0-2.52-.64-4.44-1.91-5.76-1.28-1.32-3.06-1.98-5.35-1.98-1.75,0-3.27.36-4.56,1.08-1.29.72-2.27,1.72-2.95,3.01-.67,1.29-1.01,2.84-1.01,4.64v11.95h-2.15Z"/>
          <path class="st3" d="M429.58,440.25c-2.27,0-4.36-.38-6.28-1.14-1.92-.76-3.59-1.83-5.01-3.2s-2.52-2.99-3.29-4.84c-.77-1.85-1.16-3.88-1.16-6.08s.39-4.24,1.16-6.08c.77-1.85,1.88-3.46,3.31-4.84,1.43-1.38,3.1-2.44,5.01-3.2,1.91-.76,4.01-1.14,6.3-1.14s4.2.34,6.06,1.03c1.86.69,3.45,1.72,4.77,3.1l-1.38,1.46c-1.32-1.29-2.76-2.21-4.32-2.75-1.56-.54-3.26-.82-5.1-.82-1.95,0-3.76.33-5.42.99-1.66.66-3.11,1.59-4.34,2.8-1.23,1.2-2.19,2.61-2.86,4.21-.67,1.61-1.01,3.35-1.01,5.25s.34,3.64,1.01,5.25c.67,1.61,1.63,3.01,2.86,4.21,1.23,1.2,2.68,2.14,4.34,2.79,1.66.66,3.47.99,5.42.99,1.78,0,3.46-.27,5.05-.82,1.59-.54,3.05-1.45,4.36-2.71l1.25,1.68c-1.35,1.29-2.96,2.26-4.84,2.9-1.88.65-3.85.97-5.91.97ZM440.33,436.38l-2.11-.26v-11.01h2.11v11.27Z"/>
          <path class="st3" d="M449.97,440.03v-30.1h2.19v30.1h-2.19ZM451.9,425.71v-1.94h20.64v1.94h-20.64ZM472.28,440.03v-30.1h2.19v30.1h-2.19Z"/>
          <path class="st3" d="M497.83,440.25c-2.27,0-4.36-.38-6.28-1.14-1.92-.76-3.59-1.83-5.01-3.2s-2.52-2.99-3.29-4.84c-.77-1.85-1.16-3.88-1.16-6.08s.39-4.24,1.16-6.08c.77-1.85,1.88-3.46,3.31-4.84,1.43-1.38,3.1-2.44,5.01-3.2,1.91-.76,4.01-1.14,6.3-1.14s4.2.34,6.06,1.03c1.86.69,3.45,1.72,4.77,3.1l-1.38,1.46c-1.32-1.29-2.76-2.21-4.32-2.75-1.56-.54-3.26-.82-5.1-.82-1.95,0-3.76.33-5.42.99-1.66.66-3.11,1.59-4.34,2.8-1.23,1.2-2.19,2.61-2.86,4.21-.67,1.61-1.01,3.35-1.01,5.25s.34,3.64,1.01,5.25c.67,1.61,1.63,3.01,2.86,4.21,1.23,1.2,2.68,2.14,4.34,2.79,1.66.66,3.47.99,5.42.99,1.78,0,3.46-.27,5.05-.82,1.59-.54,3.05-1.45,4.36-2.71l1.25,1.68c-1.35,1.29-2.96,2.26-4.84,2.9-1.88.65-3.85.97-5.91.97ZM508.58,436.38l-2.11-.26v-11.01h2.11v11.27Z"/>
          <path class="st3" d="M529.26,440.03v-30.1h10.79c2.52,0,4.69.4,6.49,1.2,1.81.8,3.2,1.96,4.17,3.46s1.46,3.33,1.46,5.48-.49,3.9-1.46,5.42c-.97,1.52-2.37,2.68-4.17,3.48-1.81.8-3.97,1.2-6.49,1.2h-9.59l.99-1.03v10.88h-2.19ZM531.45,429.28l-.99-1.08h9.59c3.24,0,5.7-.71,7.38-2.13,1.68-1.42,2.52-3.42,2.52-6s-.84-4.62-2.52-6.04c-1.68-1.42-4.14-2.13-7.38-2.13h-9.59l.99-1.07v18.45Z"/>
          <path class="st3" d="M558.2,440.03v-22.45h2.06v6.15l-.21-.69c.63-1.81,1.69-3.2,3.18-4.17,1.49-.97,3.35-1.46,5.59-1.46v2.11c-.09,0-.17,0-.26-.02-.09-.01-.17-.02-.26-.02-2.49,0-4.44.78-5.85,2.34-1.4,1.56-2.11,3.73-2.11,6.51v11.7h-2.15Z"/>
          <path class="st3" d="M583.31,440.21c-2.15,0-4.06-.49-5.74-1.46-1.68-.97-3.01-2.32-4-4.04-.99-1.72-1.48-3.68-1.48-5.89s.49-4.21,1.48-5.91c.99-1.71,2.32-3.05,4-4.02s3.59-1.46,5.74-1.46,4.07.49,5.76,1.46,3.02,2.31,4,4.02c.97,1.71,1.46,3.68,1.46,5.91s-.49,4.17-1.46,5.89c-.97,1.72-2.31,3.07-4,4.04-1.69.98-3.61,1.46-5.76,1.46ZM583.31,438.27c1.72,0,3.27-.39,4.64-1.18,1.38-.79,2.45-1.9,3.22-3.33.77-1.43,1.16-3.08,1.16-4.95s-.39-3.55-1.16-4.97-1.85-2.52-3.22-3.31c-1.38-.79-2.92-1.18-4.64-1.18s-3.26.39-4.62,1.18c-1.36.79-2.44,1.89-3.23,3.31s-1.18,3.07-1.18,4.97.39,3.51,1.18,4.95c.79,1.43,1.86,2.54,3.23,3.33,1.36.79,2.9,1.18,4.62,1.18Z"/>
          <path class="st3" d="M597.5,419.44v-1.85h13.42v1.85h-13.42ZM607.73,440.21c-1.98,0-3.49-.54-4.54-1.63-1.05-1.09-1.57-2.58-1.57-4.47v-21.41h2.15v21.2c0,1.43.36,2.54,1.08,3.31.72.77,1.75,1.16,3.1,1.16s2.57-.42,3.48-1.25l.9,1.5c-.57.54-1.27.95-2.08,1.2-.82.26-1.66.39-2.52.39Z"/>
          <path class="st3" d="M626.27,440.21c-2.15,0-4.06-.49-5.74-1.46-1.68-.97-3.01-2.32-4-4.04-.99-1.72-1.48-3.68-1.48-5.89s.5-4.21,1.48-5.91c.99-1.71,2.32-3.05,4-4.02,1.68-.97,3.59-1.46,5.74-1.46s4.07.49,5.76,1.46,3.02,2.31,4,4.02c.97,1.71,1.46,3.68,1.46,5.91s-.49,4.17-1.46,5.89c-.97,1.72-2.31,3.07-4,4.04-1.69.98-3.61,1.46-5.76,1.46ZM626.27,438.27c1.72,0,3.27-.39,4.64-1.18,1.38-.79,2.45-1.9,3.23-3.33.77-1.43,1.16-3.08,1.16-4.95s-.39-3.55-1.16-4.97c-.77-1.42-1.85-2.52-3.23-3.31-1.38-.79-2.92-1.18-4.64-1.18s-3.26.39-4.62,1.18c-1.36.79-2.44,1.89-3.22,3.31-.79,1.42-1.18,3.07-1.18,4.97s.39,3.51,1.18,4.95c.79,1.43,1.86,2.54,3.22,3.33,1.36.79,2.9,1.18,4.62,1.18Z"/>
          <path class="st3" d="M653.05,440.21c-2.18,0-4.12-.49-5.83-1.46-1.71-.97-3.05-2.32-4.04-4.04-.99-1.72-1.48-3.68-1.48-5.89s.49-4.21,1.48-5.93c.99-1.72,2.34-3.06,4.04-4.02,1.71-.96,3.65-1.44,5.83-1.44,1.81,0,3.45.34,4.92,1.03,1.48.69,2.67,1.72,3.59,3.1l-1.59,1.16c-.8-1.15-1.81-1.99-3.01-2.54-1.2-.54-2.51-.82-3.91-.82-1.75,0-3.32.39-4.71,1.18-1.39.79-2.48,1.89-3.27,3.31s-1.18,3.07-1.18,4.97.39,3.55,1.18,4.97,1.88,2.52,3.27,3.31c1.39.79,2.96,1.18,4.71,1.18,1.4,0,2.71-.27,3.91-.82,1.2-.54,2.21-1.39,3.01-2.54l1.59,1.16c-.92,1.38-2.12,2.41-3.59,3.1-1.48.69-3.12,1.03-4.92,1.03Z"/>
          <path class="st3" d="M676.4,440.21c-2.15,0-4.06-.49-5.74-1.46-1.68-.97-3.01-2.32-4-4.04-.99-1.72-1.48-3.68-1.48-5.89s.5-4.21,1.48-5.91c.99-1.71,2.32-3.05,4-4.02,1.68-.97,3.59-1.46,5.74-1.46s4.07.49,5.76,1.46,3.02,2.31,4,4.02c.97,1.71,1.46,3.68,1.46,5.91s-.49,4.17-1.46,5.89c-.97,1.72-2.31,3.07-4,4.04-1.69.98-3.61,1.46-5.76,1.46ZM676.4,438.27c1.72,0,3.27-.39,4.64-1.18,1.38-.79,2.45-1.9,3.23-3.33.77-1.43,1.16-3.08,1.16-4.95s-.39-3.55-1.16-4.97c-.77-1.42-1.85-2.52-3.23-3.31-1.38-.79-2.92-1.18-4.64-1.18s-3.26.39-4.62,1.18c-1.36.79-2.44,1.89-3.22,3.31-.79,1.42-1.18,3.07-1.18,4.97s.39,3.51,1.18,4.95c.79,1.43,1.86,2.54,3.22,3.33,1.36.79,2.9,1.18,4.62,1.18Z"/>
          <path class="st3" d="M694.29,440.03v-31.91h2.15v31.91h-2.15Z"/>
          <path class="st3" d="M722.63,440.21c-1.66,0-3.1-.26-4.32-.8-1.22-.53-2.15-1.28-2.8-2.26-.64-.97-.97-2.09-.97-3.35,0-1.15.26-2.19.79-3.12.53-.93,1.41-1.69,2.64-2.28,1.23-.59,2.88-.88,4.95-.88h8.26v1.68h-8.21c-2.32,0-3.95.43-4.88,1.29-.93.86-1.4,1.94-1.4,3.23,0,1.43.54,2.58,1.63,3.44,1.09.86,2.62,1.29,4.6,1.29s3.49-.43,4.79-1.29c1.3-.86,2.27-2.11,2.9-3.74l.6,1.46c-.6,1.63-1.63,2.93-3.07,3.89-1.45.96-3.29,1.44-5.53,1.44ZM730.71,440.03v-5.12l-.09-.77v-8.43c0-2.09-.57-3.68-1.7-4.77-1.13-1.09-2.79-1.63-4.97-1.63-1.55,0-2.99.27-4.32.8-1.33.53-2.47,1.21-3.42,2.04l-1.08-1.55c1.12-1,2.46-1.78,4.04-2.34,1.58-.56,3.23-.84,4.95-.84,2.78,0,4.92.7,6.41,2.11,1.49,1.41,2.24,3.5,2.24,6.28v14.23h-2.06Z"/>
          <path class="st3" d="M741.63,440.03v-22.45h2.06v6.23l-.3-.69c.69-1.78,1.82-3.17,3.4-4.19,1.58-1.02,3.51-1.53,5.81-1.53,1.83,0,3.43.35,4.79,1.05,1.36.7,2.42,1.76,3.18,3.18s1.14,3.18,1.14,5.27v13.12h-2.15v-12.94c0-2.52-.64-4.44-1.91-5.76-1.28-1.32-3.06-1.98-5.35-1.98-1.75,0-3.27.36-4.56,1.08-1.29.72-2.27,1.72-2.95,3.01-.67,1.29-1.01,2.84-1.01,4.64v11.95h-2.15Z"/>
          <path class="st3" d="M779.22,440.21c-2.09,0-3.98-.48-5.65-1.44-1.68-.96-3-2.3-3.98-4.02-.98-1.72-1.46-3.7-1.46-5.93s.49-4.25,1.46-5.96c.97-1.71,2.3-3.04,3.98-4,1.68-.96,3.56-1.44,5.65-1.44,1.98,0,3.76.46,5.35,1.38,1.59.92,2.85,2.22,3.78,3.91.93,1.69,1.4,3.73,1.4,6.11s-.46,4.34-1.38,6.06c-.92,1.72-2.17,3.04-3.76,3.96-1.59.92-3.39,1.38-5.4,1.38ZM779.34,438.27c1.72,0,3.26-.39,4.62-1.18,1.36-.79,2.44-1.9,3.23-3.33.79-1.43,1.18-3.08,1.18-4.95s-.39-3.55-1.18-4.97c-.79-1.42-1.86-2.52-3.23-3.31-1.36-.79-2.9-1.18-4.62-1.18s-3.26.39-4.62,1.18c-1.36.79-2.44,1.89-3.22,3.31-.79,1.42-1.18,3.07-1.18,4.97s.39,3.51,1.18,4.95c.79,1.43,1.86,2.54,3.22,3.33,1.36.79,2.9,1.18,4.62,1.18ZM788.42,440.03v-7.35l.39-3.91-.43-3.91v-16.73h2.15v31.91h-2.11Z"/>
          <path class="st3" d="M238.93,491.63v-30.1h2.19v30.1h-2.19Z"/>
          <path class="st3" d="M259.52,491.85c-2.24,0-4.35-.38-6.34-1.14-1.99-.76-3.53-1.74-4.62-2.95l.99-1.63c1.03,1.06,2.44,1.96,4.24,2.69,1.79.73,3.69,1.1,5.7,1.1s3.65-.26,4.92-.8c1.27-.53,2.22-1.24,2.84-2.13.62-.89.92-1.88.92-2.97,0-1.29-.34-2.32-1.03-3.1s-1.59-1.39-2.71-1.85c-1.12-.46-2.34-.85-3.66-1.16-1.32-.32-2.65-.65-4-1.01-1.35-.36-2.58-.82-3.7-1.4-1.12-.57-2.01-1.35-2.69-2.34-.67-.99-1.01-2.27-1.01-3.85,0-1.43.37-2.75,1.12-3.96.75-1.2,1.91-2.18,3.48-2.92,1.58-.75,3.6-1.12,6.06-1.12,1.66,0,3.3.24,4.92.73,1.62.49,3,1.15,4.15,1.98l-.82,1.76c-1.26-.86-2.62-1.5-4.06-1.91-1.45-.42-2.85-.62-4.19-.62-1.92,0-3.51.27-4.77.82-1.26.54-2.19,1.27-2.79,2.17-.6.9-.9,1.91-.9,3.03,0,1.29.34,2.32,1.01,3.1.67.77,1.57,1.39,2.69,1.85,1.12.46,2.35.85,3.7,1.16,1.35.32,2.68.65,4,1.01,1.32.36,2.54.82,3.65,1.4,1.12.57,2.02,1.35,2.71,2.32.69.97,1.03,2.24,1.03,3.78,0,1.41-.39,2.72-1.16,3.93-.77,1.22-1.96,2.19-3.55,2.92-1.59.73-3.63,1.1-6.13,1.1Z"/>
          <path class="st3" d="M290.57,491.85c-2.24,0-4.31-.38-6.21-1.14-1.91-.76-3.57-1.83-4.99-3.23-1.42-1.39-2.52-3.01-3.29-4.86-.77-1.85-1.16-3.86-1.16-6.04s.39-4.19,1.16-6.04c.77-1.85,1.87-3.47,3.29-4.86,1.42-1.39,3.08-2.46,4.99-3.22,1.91-.76,3.98-1.14,6.21-1.14s4.31.38,6.21,1.14c1.91.76,3.56,1.83,4.97,3.2,1.4,1.38,2.5,2.99,3.29,4.84.79,1.85,1.18,3.88,1.18,6.08s-.39,4.24-1.18,6.08c-.79,1.85-1.89,3.46-3.29,4.84-1.4,1.38-3.06,2.44-4.97,3.2-1.91.76-3.98,1.14-6.21,1.14ZM290.57,489.83c1.92,0,3.7-.33,5.33-.99,1.63-.66,3.05-1.59,4.26-2.79,1.2-1.2,2.14-2.61,2.82-4.21.67-1.6,1.01-3.35,1.01-5.25s-.34-3.68-1.01-5.27c-.67-1.59-1.61-2.99-2.82-4.19-1.2-1.2-2.62-2.14-4.26-2.8-1.63-.66-3.41-.99-5.33-.99s-3.7.33-5.33.99c-1.63.66-3.06,1.59-4.28,2.8-1.22,1.2-2.17,2.6-2.84,4.19-.67,1.59-1.01,3.35-1.01,5.27s.34,3.64,1.01,5.25c.67,1.61,1.62,3.01,2.84,4.21,1.22,1.2,2.64,2.14,4.28,2.79,1.63.66,3.41.99,5.33.99Z"/>
          <path class="st3" d="M327.38,491.63v-29.15l.99,1.03h-8.34v-1.98h9.55v30.1h-2.19Z"/>
          <path class="st3" d="M336.66,483.29v-1.59l16.34-20.17h2.45l-16.3,20.17-1.2-.34h24.34v1.94h-25.63ZM353.82,491.63v-8.34l.04-1.94v-7.35h2.11v17.63h-2.15Z"/>
          <path class="st3" d="M377.08,491.85c-2.29,0-4.33-.62-6.11-1.85-1.78-1.23-3.17-2.99-4.17-5.27-1-2.28-1.5-4.99-1.5-8.15s.5-5.87,1.5-8.15c1-2.28,2.39-4.03,4.17-5.27,1.78-1.23,3.81-1.85,6.11-1.85s4.36.62,6.13,1.85c1.76,1.23,3.15,2.99,4.15,5.27,1,2.28,1.51,5,1.51,8.15s-.5,5.87-1.51,8.15c-1,2.28-2.39,4.04-4.15,5.27-1.76,1.23-3.81,1.85-6.13,1.85ZM377.08,489.83c1.92,0,3.6-.52,5.03-1.57,1.43-1.05,2.55-2.56,3.35-4.54.8-1.98,1.2-4.36,1.2-7.14s-.4-5.2-1.2-7.16c-.8-1.96-1.92-3.47-3.35-4.52-1.43-1.05-3.11-1.57-5.03-1.57s-3.56.52-5.01,1.57c-1.45,1.05-2.57,2.55-3.38,4.52-.8,1.96-1.2,4.35-1.2,7.16s.4,5.16,1.2,7.14c.8,1.98,1.93,3.49,3.38,4.54,1.45,1.05,3.12,1.57,5.01,1.57Z"/>
          <path class="st3" d="M405.68,491.85c-2.64,0-4.85-.6-6.64-1.81-1.79-1.2-3.15-2.94-4.06-5.2-.92-2.26-1.38-4.96-1.38-8.08,0-3.41.56-6.26,1.68-8.54,1.12-2.28,2.68-4,4.69-5.16,2.01-1.16,4.34-1.74,7.01-1.74,1.29,0,2.52.11,3.7.34,1.18.23,2.22.63,3.14,1.2l-.9,1.76c-.77-.49-1.67-.84-2.69-1.05-1.02-.21-2.1-.32-3.25-.32-3.38,0-6.09,1.1-8.13,3.29-2.04,2.19-3.05,5.48-3.05,9.87,0,.66.04,1.5.13,2.52.09,1.02.27,2.01.56,2.99l-.77-.22c.2-1.66.76-3.08,1.68-4.26.92-1.18,2.09-2.07,3.53-2.69,1.43-.62,3.01-.92,4.73-.92,2.01,0,3.76.37,5.27,1.1,1.51.73,2.68,1.77,3.53,3.12.85,1.35,1.27,2.92,1.27,4.73s-.44,3.43-1.31,4.79c-.87,1.36-2.06,2.42-3.57,3.16-1.5.75-3.22,1.12-5.14,1.12ZM405.59,489.96c1.58,0,2.95-.29,4.13-.88,1.17-.59,2.1-1.42,2.77-2.49.67-1.07,1.01-2.33,1.01-3.76,0-2.15-.72-3.87-2.17-5.16-1.45-1.29-3.45-1.94-6-1.94-1.63,0-3.08.32-4.34.95-1.26.63-2.24,1.49-2.95,2.58-.7,1.09-1.05,2.31-1.05,3.65,0,1.18.33,2.3.99,3.38.66,1.08,1.63,1.96,2.9,2.64,1.28.69,2.84,1.03,4.71,1.03Z"/>
          <path class="st3" d="M418.96,483.29v-1.59l16.34-20.17h2.45l-16.3,20.17-1.2-.34h24.34v1.94h-25.63ZM436.12,491.63v-8.34l.04-1.94v-7.35h2.11v17.63h-2.15Z"/>
          <path class="st3" d="M448.59,497.78l1.68-7.27.22,1.25c-.54,0-1-.17-1.35-.52-.36-.34-.54-.77-.54-1.29s.18-.95.54-1.29c.36-.34.78-.52,1.27-.52.54,0,.98.18,1.31.54s.49.78.49,1.27c0,.2-.01.4-.04.6-.03.2-.07.4-.13.6-.06.2-.13.46-.21.77l-1.68,5.85h-1.55Z"/>
          <path class="st3" d="M474.69,491.63l-8.51-22.45h2.06l7.91,21.24h-.9l8.13-21.24h1.85l8.08,21.24h-.95l8.04-21.24h1.98l-8.51,22.45h-2.02l-7.91-20.38h.69l-7.96,20.38h-1.98Z"/>
          <path class="st3" d="M508.45,463.73c-.49,0-.9-.17-1.25-.52s-.52-.75-.52-1.2c0-.49.17-.9.52-1.25s.76-.52,1.25-.52c.52,0,.94.17,1.27.49.33.33.49.74.49,1.23s-.17.9-.49,1.25c-.33.34-.75.52-1.27.52ZM507.37,491.63v-22.45h2.15v22.45h-2.15Z"/>
          <path class="st3" d="M514.34,471.04v-1.85h13.42v1.85h-13.42ZM524.57,491.81c-1.98,0-3.49-.54-4.54-1.63-1.05-1.09-1.57-2.58-1.57-4.47v-21.41h2.15v21.2c0,1.43.36,2.54,1.07,3.31.72.77,1.75,1.16,3.1,1.16s2.56-.42,3.48-1.25l.9,1.5c-.57.54-1.27.95-2.09,1.2-.82.26-1.66.39-2.52.39Z"/>
          <path class="st3" d="M535.15,491.63v-31.91h2.15v15.69l-.39-.69c.69-1.78,1.82-3.17,3.4-4.19s3.51-1.53,5.81-1.53c1.83,0,3.43.35,4.79,1.05,1.36.7,2.42,1.76,3.18,3.18s1.14,3.18,1.14,5.27v13.12h-2.15v-12.94c0-2.52-.64-4.44-1.91-5.76-1.28-1.32-3.06-1.98-5.35-1.98-1.75,0-3.27.36-4.56,1.08-1.29.72-2.27,1.72-2.95,3.01-.67,1.29-1.01,2.84-1.01,4.64v11.95h-2.15Z"/>
          <path class="st3" d="M583.91,491.81c-2.15,0-4.06-.49-5.74-1.46-1.68-.97-3.01-2.32-4-4.04-.99-1.72-1.48-3.68-1.48-5.89s.49-4.21,1.48-5.91c.99-1.71,2.32-3.05,4-4.02s3.59-1.46,5.74-1.46,4.07.49,5.76,1.46,3.02,2.31,4,4.02c.97,1.71,1.46,3.68,1.46,5.91s-.49,4.17-1.46,5.89c-.97,1.72-2.31,3.07-4,4.04-1.69.98-3.61,1.46-5.76,1.46ZM583.91,489.87c1.72,0,3.27-.39,4.64-1.18,1.38-.79,2.45-1.9,3.22-3.33.77-1.43,1.16-3.08,1.16-4.95s-.39-3.55-1.16-4.97-1.85-2.52-3.22-3.31c-1.38-.79-2.92-1.18-4.64-1.18s-3.26.39-4.62,1.18c-1.36.79-2.44,1.89-3.23,3.31s-1.18,3.07-1.18,4.97.39,3.51,1.18,4.95c.79,1.43,1.86,2.54,3.23,3.33,1.36.79,2.9,1.18,4.62,1.18Z"/>
          <path class="st3" d="M610.91,491.81c-1.92,0-3.58-.35-4.99-1.05-1.4-.7-2.49-1.76-3.25-3.18-.76-1.42-1.14-3.17-1.14-5.27v-13.11h2.15v12.94c0,2.52.64,4.44,1.93,5.76,1.29,1.32,3.11,1.98,5.46,1.98,1.69,0,3.15-.36,4.39-1.07,1.23-.72,2.18-1.73,2.84-3.03.66-1.3.99-2.84.99-4.62v-11.95h2.15v22.45h-2.06v-6.23l.3.73c-.66,1.75-1.76,3.13-3.29,4.15-1.53,1.02-3.36,1.53-5.48,1.53Z"/>
          <path class="st3" d="M626.87,471.04v-1.85h13.42v1.85h-13.42ZM637.1,491.81c-1.98,0-3.49-.54-4.54-1.63-1.05-1.09-1.57-2.58-1.57-4.47v-21.41h2.15v21.2c0,1.43.36,2.54,1.08,3.31.72.77,1.75,1.16,3.1,1.16s2.57-.42,3.48-1.25l.9,1.5c-.57.54-1.27.95-2.08,1.2-.82.26-1.66.39-2.52.39Z"/>
          <path class="st3" d="M647.68,499.98v-30.79h2.06v7.35l-.34,3.91.43,3.91v15.61h-2.15ZM658.94,491.81c-1.98,0-3.76-.46-5.35-1.38-1.59-.92-2.85-2.23-3.78-3.93-.93-1.71-1.4-3.73-1.4-6.08s.47-4.38,1.4-6.08c.93-1.71,2.19-3.02,3.78-3.93,1.59-.92,3.38-1.38,5.35-1.38,2.12,0,4.02.48,5.7,1.44,1.68.96,3,2.3,3.96,4.02.96,1.72,1.44,3.7,1.44,5.93s-.48,4.21-1.44,5.93c-.96,1.72-2.28,3.06-3.96,4.02-1.68.96-3.58,1.44-5.7,1.44ZM658.82,489.87c1.72,0,3.27-.39,4.64-1.18,1.38-.79,2.46-1.9,3.25-3.33.79-1.43,1.18-3.08,1.18-4.95s-.39-3.55-1.18-4.97c-.79-1.42-1.87-2.52-3.25-3.31-1.38-.79-2.92-1.18-4.64-1.18s-3.26.39-4.62,1.18c-1.36.79-2.44,1.89-3.22,3.31-.79,1.42-1.18,3.07-1.18,4.97s.39,3.51,1.18,4.95c.79,1.43,1.86,2.54,3.22,3.33,1.36.79,2.9,1.18,4.62,1.18Z"/>
          <path class="st3" d="M685.82,491.81c-1.92,0-3.58-.35-4.99-1.05-1.41-.7-2.49-1.76-3.25-3.18s-1.14-3.17-1.14-5.27v-13.11h2.15v12.94c0,2.52.65,4.44,1.93,5.76,1.29,1.32,3.11,1.98,5.46,1.98,1.69,0,3.15-.36,4.39-1.07,1.23-.72,2.18-1.73,2.84-3.03.66-1.3.99-2.84.99-4.62v-11.95h2.15v22.45h-2.06v-6.23l.3.73c-.66,1.75-1.76,3.13-3.29,4.15-1.53,1.02-3.36,1.53-5.48,1.53Z"/>
          <path class="st3" d="M701.77,471.04v-1.85h13.42v1.85h-13.42ZM712.01,491.81c-1.98,0-3.49-.54-4.54-1.63-1.05-1.09-1.57-2.58-1.57-4.47v-21.41h2.15v21.2c0,1.43.36,2.54,1.07,3.31s1.75,1.16,3.1,1.16,2.56-.42,3.48-1.25l.9,1.5c-.57.54-1.27.95-2.09,1.2-.82.26-1.66.39-2.51.39Z"/>
          <path class="st3" d="M728.26,491.81c-1.86,0-3.61-.27-5.22-.82-1.62-.54-2.88-1.23-3.76-2.06l.99-1.72c.86.75,2.01,1.38,3.44,1.91,1.43.53,2.98.8,4.64.8,2.35,0,4.04-.39,5.07-1.16,1.03-.77,1.55-1.79,1.55-3.05,0-.92-.27-1.64-.8-2.17-.53-.53-1.24-.94-2.13-1.23-.89-.29-1.86-.52-2.92-.71-1.06-.19-2.12-.39-3.18-.62-1.06-.23-2.04-.56-2.92-.99-.89-.43-1.6-1.02-2.13-1.78-.53-.76-.79-1.77-.79-3.03,0-1.15.31-2.18.95-3.1.63-.92,1.58-1.66,2.84-2.21,1.26-.56,2.84-.84,4.73-.84,1.4,0,2.82.2,4.24.6,1.42.4,2.57.93,3.46,1.59l-.99,1.72c-.95-.72-2.01-1.23-3.18-1.55-1.18-.31-2.36-.47-3.57-.47-2.18,0-3.78.4-4.79,1.2-1.02.8-1.53,1.81-1.53,3.01,0,.95.26,1.7.8,2.26.53.56,1.24.99,2.13,1.29.89.3,1.86.54,2.92.73,1.06.19,2.12.39,3.18.62,1.06.23,2.04.55,2.92.97.89.42,1.6.99,2.13,1.72.53.73.79,1.71.79,2.95s-.34,2.31-1.01,3.23c-.67.92-1.67,1.63-2.99,2.15s-2.94.77-4.86.77Z"/>
          <path class="st3" d="M238.24,543.23v-22.45h2.06v6.19l-.3-.69c.66-1.75,1.76-3.13,3.31-4.15,1.55-1.02,3.41-1.53,5.59-1.53s4.12.57,5.65,1.7c1.53,1.13,2.5,2.82,2.9,5.05l-.73-.3c.6-1.92,1.73-3.48,3.4-4.67,1.66-1.19,3.68-1.78,6.06-1.78,1.81,0,3.38.35,4.71,1.05,1.33.7,2.37,1.76,3.12,3.18.75,1.42,1.12,3.18,1.12,5.27v13.12h-2.15v-12.94c0-2.52-.62-4.44-1.85-5.76-1.23-1.32-2.95-1.98-5.16-1.98-1.69,0-3.15.36-4.39,1.08-1.23.72-2.18,1.72-2.84,3.01-.66,1.29-.99,2.84-.99,4.64v11.95h-2.15v-12.94c0-2.52-.62-4.44-1.85-5.76-1.23-1.32-2.95-1.98-5.16-1.98-1.69,0-3.15.36-4.39,1.08-1.23.72-2.18,1.72-2.84,3.01-.66,1.29-.99,2.84-.99,4.64v11.95h-2.15Z"/>
          <path class="st3" d="M290.05,543.41c-1.66,0-3.1-.26-4.32-.8-1.22-.53-2.15-1.28-2.79-2.26-.65-.97-.97-2.09-.97-3.35,0-1.15.26-2.19.8-3.12.53-.93,1.41-1.69,2.64-2.28,1.23-.59,2.88-.88,4.94-.88h8.26v1.68h-8.21c-2.32,0-3.95.43-4.88,1.29-.93.86-1.4,1.94-1.4,3.23,0,1.43.54,2.58,1.63,3.44,1.09.86,2.62,1.29,4.6,1.29s3.49-.43,4.79-1.29c1.3-.86,2.27-2.11,2.9-3.74l.6,1.46c-.6,1.63-1.63,2.93-3.07,3.89-1.45.96-3.29,1.44-5.53,1.44ZM298.14,543.23v-5.12l-.09-.77v-8.43c0-2.09-.57-3.68-1.7-4.77-1.13-1.09-2.79-1.63-4.97-1.63-1.55,0-2.99.27-4.32.8-1.33.53-2.47,1.21-3.42,2.04l-1.07-1.55c1.12-1,2.46-1.78,4.04-2.34,1.58-.56,3.22-.84,4.94-.84,2.78,0,4.92.7,6.41,2.11,1.49,1.41,2.24,3.5,2.24,6.28v14.23h-2.06Z"/>
          <path class="st3" d="M309.06,551.58v-30.79h2.06v7.35l-.34,3.91.43,3.91v15.61h-2.15ZM320.33,543.41c-1.98,0-3.76-.46-5.35-1.38-1.59-.92-2.85-2.23-3.78-3.93-.93-1.71-1.4-3.73-1.4-6.08s.47-4.38,1.4-6.08c.93-1.71,2.19-3.02,3.78-3.93,1.59-.92,3.38-1.38,5.35-1.38,2.12,0,4.02.48,5.7,1.44,1.68.96,3,2.3,3.96,4.02.96,1.72,1.44,3.7,1.44,5.93s-.48,4.21-1.44,5.93c-.96,1.72-2.28,3.06-3.96,4.02-1.68.96-3.58,1.44-5.7,1.44ZM320.2,541.47c1.72,0,3.27-.39,4.64-1.18,1.38-.79,2.46-1.9,3.25-3.33.79-1.43,1.18-3.08,1.18-4.95s-.39-3.55-1.18-4.97c-.79-1.42-1.87-2.52-3.25-3.31-1.38-.79-2.92-1.18-4.64-1.18s-3.26.39-4.62,1.18c-1.36.79-2.44,1.89-3.22,3.31-.79,1.42-1.18,3.07-1.18,4.97s.39,3.51,1.18,4.95c.79,1.43,1.86,2.54,3.22,3.33,1.36.79,2.9,1.18,4.62,1.18Z"/>
          <path class="st3" d="M338.08,551.58v-30.79h2.06v7.35l-.34,3.91.43,3.91v15.61h-2.15ZM349.35,543.41c-1.98,0-3.76-.46-5.35-1.38-1.59-.92-2.85-2.23-3.78-3.93-.93-1.71-1.4-3.73-1.4-6.08s.47-4.38,1.4-6.08c.93-1.71,2.19-3.02,3.78-3.93,1.59-.92,3.38-1.38,5.35-1.38,2.12,0,4.02.48,5.7,1.44,1.68.96,3,2.3,3.96,4.02.96,1.72,1.44,3.7,1.44,5.93s-.48,4.21-1.44,5.93c-.96,1.72-2.28,3.06-3.96,4.02-1.68.96-3.58,1.44-5.7,1.44ZM349.22,541.47c1.72,0,3.27-.39,4.64-1.18,1.38-.79,2.46-1.9,3.25-3.33.79-1.43,1.18-3.08,1.18-4.95s-.39-3.55-1.18-4.97c-.79-1.42-1.87-2.52-3.25-3.31-1.38-.79-2.92-1.18-4.64-1.18s-3.26.39-4.62,1.18c-1.36.79-2.44,1.89-3.22,3.31-.79,1.42-1.18,3.07-1.18,4.97s.39,3.51,1.18,4.95c.79,1.43,1.86,2.54,3.22,3.33,1.36.79,2.9,1.18,4.62,1.18Z"/>
          <path class="st3" d="M376.22,543.41c-2.26,0-4.26-.49-6-1.46-1.73-.97-3.1-2.32-4.08-4.04-.99-1.72-1.48-3.68-1.48-5.89s.47-4.21,1.4-5.91c.93-1.71,2.21-3.05,3.85-4.02s3.47-1.46,5.5-1.46,3.86.47,5.48,1.42c1.62.95,2.9,2.27,3.83,3.98.93,1.71,1.4,3.68,1.4,5.91,0,.09,0,.18-.02.28-.01.1-.02.21-.02.32h-19.82v-1.68h18.66l-.86.82c.03-1.75-.34-3.32-1.1-4.71-.76-1.39-1.78-2.48-3.07-3.27-1.29-.79-2.78-1.18-4.47-1.18s-3.15.39-4.45,1.18c-1.31.79-2.33,1.88-3.07,3.27-.75,1.39-1.12,2.97-1.12,4.75v.39c0,1.83.41,3.46,1.23,4.88s1.94,2.52,3.38,3.31c1.43.79,3.07,1.18,4.9,1.18,1.43,0,2.77-.26,4.02-.77,1.25-.52,2.3-1.3,3.16-2.36l1.25,1.42c-.98,1.2-2.2,2.11-3.68,2.73-1.48.62-3.07.92-4.79.92Z"/>
          <path class="st3" d="M401.42,543.41c-2.09,0-3.98-.48-5.65-1.44-1.68-.96-3-2.3-3.98-4.02-.97-1.72-1.46-3.7-1.46-5.93s.49-4.25,1.46-5.96c.97-1.71,2.3-3.04,3.98-4,1.68-.96,3.56-1.44,5.65-1.44,1.98,0,3.76.46,5.35,1.38,1.59.92,2.85,2.22,3.78,3.91.93,1.69,1.4,3.73,1.4,6.11s-.46,4.34-1.38,6.06c-.92,1.72-2.17,3.04-3.76,3.96-1.59.92-3.39,1.38-5.4,1.38ZM401.55,541.47c1.72,0,3.26-.39,4.62-1.18,1.36-.79,2.44-1.9,3.23-3.33.79-1.43,1.18-3.08,1.18-4.95s-.39-3.55-1.18-4.97c-.79-1.42-1.86-2.52-3.23-3.31-1.36-.79-2.9-1.18-4.62-1.18s-3.26.39-4.62,1.18c-1.36.79-2.44,1.89-3.23,3.31-.79,1.42-1.18,3.07-1.18,4.97s.39,3.51,1.18,4.95c.79,1.43,1.86,2.54,3.23,3.33,1.36.79,2.9,1.18,4.62,1.18ZM410.62,543.23v-7.35l.39-3.91-.43-3.91v-16.73h2.15v31.91h-2.11Z"/>
          <path class="st3" d="M429.16,522.64v-1.85h13.42v1.85h-13.42ZM439.39,543.41c-1.98,0-3.49-.54-4.54-1.63-1.05-1.09-1.57-2.58-1.57-4.47v-21.41h2.15v21.2c0,1.43.36,2.54,1.07,3.31.72.77,1.75,1.16,3.1,1.16s2.56-.42,3.48-1.25l.9,1.5c-.57.54-1.27.95-2.09,1.2-.82.26-1.66.39-2.52.39Z"/>
          <path class="st3" d="M457.92,543.41c-2.15,0-4.06-.49-5.74-1.46-1.68-.97-3.01-2.32-4-4.04-.99-1.72-1.48-3.68-1.48-5.89s.49-4.21,1.48-5.91c.99-1.71,2.32-3.05,4-4.02,1.68-.97,3.59-1.46,5.74-1.46s4.07.49,5.76,1.46,3.02,2.31,4,4.02c.97,1.71,1.46,3.68,1.46,5.91s-.49,4.17-1.46,5.89c-.97,1.72-2.31,3.07-4,4.04-1.69.98-3.61,1.46-5.76,1.46ZM457.92,541.47c1.72,0,3.27-.39,4.64-1.18,1.38-.79,2.45-1.9,3.23-3.33.77-1.43,1.16-3.08,1.16-4.95s-.39-3.55-1.16-4.97c-.77-1.42-1.85-2.52-3.23-3.31-1.38-.79-2.92-1.18-4.64-1.18s-3.26.39-4.62,1.18c-1.36.79-2.44,1.89-3.23,3.31-.79,1.42-1.18,3.07-1.18,4.97s.39,3.51,1.18,4.95c.79,1.43,1.86,2.54,3.23,3.33,1.36.79,2.9,1.18,4.62,1.18Z"/>
          <path class="st3" d="M495.46,543.45c-2.24,0-4.35-.38-6.34-1.14-1.99-.76-3.53-1.74-4.62-2.95l.99-1.63c1.03,1.06,2.44,1.96,4.24,2.69,1.79.73,3.69,1.1,5.7,1.1s3.65-.26,4.92-.8c1.27-.53,2.22-1.24,2.84-2.13.62-.89.92-1.88.92-2.97,0-1.29-.34-2.32-1.03-3.1s-1.59-1.39-2.71-1.85c-1.12-.46-2.34-.85-3.66-1.16-1.32-.32-2.65-.65-4-1.01-1.35-.36-2.58-.82-3.7-1.4-1.12-.57-2.01-1.35-2.69-2.34-.67-.99-1.01-2.27-1.01-3.85,0-1.43.37-2.75,1.12-3.96.75-1.2,1.91-2.18,3.48-2.92,1.58-.75,3.6-1.12,6.06-1.12,1.66,0,3.3.24,4.92.73,1.62.49,3,1.15,4.15,1.98l-.82,1.76c-1.26-.86-2.62-1.5-4.06-1.91-1.45-.42-2.85-.62-4.19-.62-1.92,0-3.51.27-4.77.82-1.26.54-2.19,1.27-2.79,2.17-.6.9-.9,1.91-.9,3.03,0,1.29.34,2.32,1.01,3.1.67.77,1.57,1.39,2.69,1.85,1.12.46,2.35.85,3.7,1.16,1.35.32,2.68.65,4,1.01,1.32.36,2.54.82,3.65,1.4,1.12.57,2.02,1.35,2.71,2.32.69.97,1.03,2.24,1.03,3.78,0,1.41-.39,2.72-1.16,3.93-.77,1.22-1.96,2.19-3.55,2.92-1.59.73-3.63,1.1-6.13,1.1Z"/>
          <path class="st3" d="M513.73,543.23v-30.1h20.12v1.98h-17.93v26.14h18.58v1.98h-20.77ZM515.67,528.91v-1.94h16.3v1.94h-16.3Z"/>
          <path class="st3" d="M555.1,543.45c-2.24,0-4.31-.38-6.21-1.14-1.91-.76-3.56-1.83-4.97-3.2s-2.49-2.99-3.27-4.84c-.77-1.85-1.16-3.88-1.16-6.08s.39-4.24,1.16-6.08c.77-1.85,1.87-3.46,3.29-4.84s3.08-2.44,4.97-3.2c1.89-.76,3.96-1.14,6.19-1.14,2.12,0,4.11.34,5.96,1.03s3.43,1.73,4.75,3.14l-1.38,1.42c-1.29-1.26-2.72-2.17-4.28-2.73s-3.22-.84-4.97-.84c-1.92,0-3.71.33-5.35.99-1.65.66-3.08,1.59-4.3,2.8-1.22,1.2-2.17,2.61-2.84,4.21-.67,1.61-1.01,3.35-1.01,5.25s.34,3.64,1.01,5.25c.67,1.61,1.62,3.01,2.84,4.21,1.22,1.2,2.65,2.14,4.3,2.79,1.65.66,3.43.99,5.35.99,1.75,0,3.4-.28,4.97-.84s2.99-1.48,4.28-2.77l1.38,1.42c-1.32,1.4-2.9,2.46-4.75,3.16-1.85.7-3.83,1.05-5.96,1.05Z"/>
          <path class="st3" d="M572.73,543.23v-30.1h10.79c3.78,0,6.75.89,8.9,2.67,2.15,1.78,3.23,4.27,3.23,7.48,0,2.09-.49,3.89-1.46,5.4-.98,1.51-2.37,2.67-4.17,3.48-1.81.82-3.97,1.23-6.49,1.23h-9.59l.99-1.03v10.88h-2.19ZM574.92,532.48l-.99-1.03h9.59c3.24,0,5.7-.72,7.37-2.15,1.68-1.43,2.52-3.44,2.52-6.02s-.84-4.62-2.52-6.04-4.13-2.13-7.37-2.13h-9.59l.99-1.07v18.45ZM593.63,543.23l-7.83-10.92h2.49l7.83,10.92h-2.49Z"/>
          <path class="st3" d="M619.21,551.58c-1.58-2.61-2.79-5.62-3.63-9.03s-1.27-7.11-1.27-11.09.42-7.7,1.27-11.16c.85-3.45,2.06-6.44,3.63-8.97h2.06c-1.69,2.87-2.92,5.96-3.7,9.29-.77,3.33-1.16,6.94-1.16,10.84s.39,7.51,1.16,10.84c.77,3.32,2.01,6.42,3.7,9.29h-2.06Z"/>
          <path class="st3" d="M640.33,543.45c-3.73,0-6.67-1.09-8.81-3.27-2.15-2.18-3.23-5.42-3.23-9.72v-17.33h2.19v17.24c0,3.76.86,6.54,2.58,8.34,1.72,1.81,4.16,2.71,7.31,2.71s5.55-.9,7.27-2.71c1.72-1.81,2.58-4.59,2.58-8.34v-17.24h2.19v17.33c0,4.3-1.07,7.54-3.22,9.72-2.15,2.18-5.1,3.27-8.86,3.27Z"/>
          <path class="st3" d="M662.64,543.23v-30.1h2.19v30.1h-2.19ZM664.54,535.62l-.09-2.75,19.18-19.74h2.67l-13.42,13.89-1.25,1.33-7.09,7.27ZM684.53,543.23l-13.54-15.48,1.5-1.59,14.71,17.07h-2.67Z"/>
          <path class="st3" d="M689.69,551.58c1.66-2.87,2.88-5.96,3.66-9.29.77-3.33,1.16-6.94,1.16-10.84s-.39-7.51-1.16-10.84c-.77-3.32-1.99-6.42-3.66-9.29h2.02c1.58,2.52,2.79,5.51,3.66,8.97.86,3.45,1.29,7.17,1.29,11.16s-.43,7.68-1.29,11.09-2.08,6.42-3.66,9.03h-2.02Z"/>
          <path class="st3" d="M703.96,549.38l1.68-7.27.22,1.25c-.54,0-1-.17-1.35-.52-.36-.34-.54-.77-.54-1.29s.18-.95.54-1.29c.36-.34.78-.52,1.27-.52.54,0,.98.18,1.31.54.33.36.5.78.5,1.27,0,.2-.01.4-.04.6-.03.2-.07.4-.13.6-.06.2-.13.46-.21.77l-1.68,5.85h-1.55Z"/>
          <path class="st3" d="M251.65,595.05c-2.24,0-4.31-.38-6.21-1.14-1.91-.76-3.56-1.83-4.97-3.2-1.4-1.38-2.49-2.99-3.27-4.84-.77-1.85-1.16-3.88-1.16-6.08s.39-4.24,1.16-6.08c.77-1.85,1.87-3.46,3.29-4.84s3.07-2.44,4.97-3.2c1.89-.76,3.96-1.14,6.19-1.14,2.12,0,4.11.34,5.96,1.03,1.85.69,3.43,1.73,4.75,3.14l-1.38,1.42c-1.29-1.26-2.72-2.17-4.28-2.73-1.56-.56-3.22-.84-4.97-.84-1.92,0-3.71.33-5.35.99-1.65.66-3.08,1.59-4.3,2.8-1.22,1.2-2.17,2.61-2.84,4.21-.67,1.61-1.01,3.35-1.01,5.25s.34,3.64,1.01,5.25c.67,1.61,1.62,3.01,2.84,4.21,1.22,1.2,2.65,2.14,4.3,2.79,1.65.66,3.43.99,5.35.99,1.75,0,3.4-.28,4.97-.84,1.56-.56,2.99-1.48,4.28-2.77l1.38,1.42c-1.32,1.4-2.9,2.46-4.75,3.16-1.85.7-3.83,1.05-5.96,1.05Z"/>
          <path class="st3" d="M277.07,595.05c-2.24,0-4.35-.38-6.34-1.14-1.99-.76-3.53-1.74-4.62-2.95l.99-1.63c1.03,1.06,2.44,1.96,4.24,2.69,1.79.73,3.69,1.1,5.7,1.1s3.65-.26,4.92-.8c1.27-.53,2.22-1.24,2.84-2.13.62-.89.92-1.88.92-2.97,0-1.29-.34-2.32-1.03-3.1s-1.59-1.39-2.71-1.85c-1.12-.46-2.34-.85-3.66-1.16-1.32-.32-2.65-.65-4-1.01-1.35-.36-2.58-.82-3.7-1.4-1.12-.57-2.01-1.35-2.69-2.34-.67-.99-1.01-2.27-1.01-3.85,0-1.43.37-2.75,1.12-3.96.75-1.2,1.91-2.18,3.48-2.92,1.58-.75,3.6-1.12,6.06-1.12,1.66,0,3.3.24,4.92.73,1.62.49,3,1.15,4.15,1.98l-.82,1.76c-1.26-.86-2.62-1.5-4.06-1.91-1.45-.42-2.85-.62-4.19-.62-1.92,0-3.51.27-4.77.82-1.26.54-2.19,1.27-2.79,2.17-.6.9-.9,1.91-.9,3.03,0,1.29.34,2.32,1.01,3.1.67.77,1.57,1.39,2.69,1.85,1.12.46,2.35.85,3.7,1.16,1.35.32,2.68.65,4,1.01,1.32.36,2.54.82,3.65,1.4,1.12.57,2.02,1.35,2.71,2.32.69.97,1.03,2.24,1.03,3.78,0,1.41-.39,2.72-1.16,3.93-.77,1.22-1.96,2.19-3.55,2.92-1.59.73-3.63,1.1-6.13,1.1Z"/>
          <path class="st3" d="M295.34,594.83v-30.1h10.79c3.78,0,6.75.89,8.9,2.67,2.15,1.78,3.23,4.27,3.23,7.48,0,2.09-.49,3.89-1.46,5.4-.98,1.51-2.37,2.67-4.17,3.48-1.81.82-3.97,1.23-6.49,1.23h-9.59l.99-1.03v10.88h-2.19ZM297.54,584.08l-.99-1.03h9.59c3.24,0,5.7-.72,7.37-2.15,1.68-1.43,2.52-3.44,2.52-6.02s-.84-4.62-2.52-6.04c-1.68-1.42-4.14-2.13-7.37-2.13h-9.59l.99-1.07v18.45ZM316.24,594.83l-7.83-10.92h2.49l7.83,10.92h-2.49Z"/>
          <path class="st3" d="M326.3,594.83v-30.1h11.91c3.18,0,5.98.65,8.38,1.94s4.28,3.07,5.61,5.33c1.33,2.27,2,4.86,2,7.78s-.67,5.52-2,7.78c-1.33,2.27-3.2,4.04-5.61,5.33s-5.2,1.94-8.38,1.94h-11.91ZM328.5,592.86h9.55c2.84,0,5.3-.56,7.4-1.68,2.09-1.12,3.71-2.66,4.86-4.62,1.15-1.96,1.72-4.22,1.72-6.77s-.57-4.81-1.72-6.77c-1.15-1.96-2.77-3.5-4.86-4.62-2.09-1.12-4.56-1.68-7.4-1.68h-9.55v26.14Z"/>
          <path class="st3" d="M377.34,603.18c-1.58-2.61-2.79-5.62-3.63-9.03-.85-3.41-1.27-7.11-1.27-11.09s.42-7.7,1.27-11.16c.85-3.45,2.06-6.44,3.63-8.97h2.06c-1.69,2.87-2.92,5.96-3.7,9.29-.77,3.33-1.16,6.94-1.16,10.84s.39,7.51,1.16,10.84c.77,3.32,2.01,6.42,3.7,9.29h-2.06Z"/>
          <path class="st3" d="M386.67,594.83v-30.1h20.12v1.98h-17.93v26.14h18.58v1.98h-20.77ZM388.61,580.51v-1.94h16.3v1.94h-16.3Z"/>
          <path class="st3" d="M427.22,595.05c-3.73,0-6.67-1.09-8.81-3.27-2.15-2.18-3.23-5.42-3.23-9.72v-17.33h2.19v17.24c0,3.76.86,6.54,2.58,8.34,1.72,1.81,4.16,2.71,7.31,2.71s5.55-.9,7.27-2.71c1.72-1.81,2.58-4.59,2.58-8.34v-17.24h2.19v17.33c0,4.3-1.07,7.54-3.22,9.72-2.15,2.18-5.1,3.27-8.86,3.27Z"/>
          <path class="st3" d="M446.36,603.18c1.66-2.87,2.88-5.96,3.66-9.29.77-3.33,1.16-6.94,1.16-10.84s-.39-7.51-1.16-10.84c-.77-3.32-1.99-6.42-3.66-9.29h2.02c1.58,2.52,2.79,5.51,3.66,8.97.86,3.45,1.29,7.17,1.29,11.16s-.43,7.68-1.29,11.09c-.86,3.41-2.08,6.42-3.66,9.03h-2.02Z"/>
          <path class="st3" d="M460.63,600.98l1.68-7.27.22,1.25c-.54,0-1-.17-1.35-.52-.36-.34-.54-.77-.54-1.29s.18-.95.54-1.29c.36-.34.78-.52,1.27-.52.54,0,.98.18,1.31.54s.49.78.49,1.27c0,.2-.01.4-.04.6-.03.2-.07.4-.13.6-.06.2-.13.46-.21.77l-1.68,5.85h-1.55Z"/>
          <path class="st3" d="M488.41,595.01c-1.66,0-3.1-.26-4.32-.8-1.22-.53-2.15-1.28-2.79-2.26-.65-.97-.97-2.09-.97-3.35,0-1.15.26-2.19.8-3.12.53-.93,1.41-1.69,2.64-2.28,1.23-.59,2.88-.88,4.94-.88h8.26v1.68h-8.21c-2.32,0-3.95.43-4.88,1.29-.93.86-1.4,1.94-1.4,3.23,0,1.43.54,2.58,1.63,3.44,1.09.86,2.62,1.29,4.6,1.29s3.49-.43,4.79-1.29c1.3-.86,2.27-2.11,2.9-3.74l.6,1.46c-.6,1.63-1.63,2.93-3.07,3.89-1.45.96-3.29,1.44-5.53,1.44ZM496.49,594.83v-5.12l-.09-.77v-8.43c0-2.09-.57-3.68-1.7-4.77-1.13-1.09-2.79-1.63-4.97-1.63-1.55,0-2.99.27-4.32.8-1.33.53-2.47,1.21-3.42,2.04l-1.07-1.55c1.12-1,2.46-1.78,4.04-2.34,1.58-.56,3.22-.84,4.94-.84,2.78,0,4.92.7,6.41,2.11,1.49,1.41,2.24,3.5,2.24,6.28v14.23h-2.06Z"/>
          <path class="st3" d="M507.42,594.83v-22.45h2.06v6.23l-.3-.69c.69-1.78,1.82-3.17,3.4-4.19s3.51-1.53,5.81-1.53c1.83,0,3.43.35,4.79,1.05,1.36.7,2.42,1.76,3.18,3.18.76,1.42,1.14,3.18,1.14,5.27v13.12h-2.15v-12.94c0-2.52-.64-4.44-1.91-5.76-1.28-1.32-3.06-1.98-5.35-1.98-1.75,0-3.27.36-4.56,1.08-1.29.72-2.27,1.72-2.95,3.01-.67,1.29-1.01,2.84-1.01,4.64v11.95h-2.15Z"/>
          <path class="st3" d="M545,595.01c-2.09,0-3.98-.48-5.65-1.44-1.68-.96-3-2.3-3.98-4.02-.97-1.72-1.46-3.7-1.46-5.93s.49-4.25,1.46-5.96c.97-1.71,2.3-3.04,3.98-4,1.68-.96,3.56-1.44,5.65-1.44,1.98,0,3.76.46,5.35,1.38,1.59.92,2.85,2.22,3.78,3.91.93,1.69,1.4,3.73,1.4,6.11s-.46,4.34-1.38,6.06c-.92,1.72-2.17,3.04-3.76,3.96-1.59.92-3.39,1.38-5.4,1.38ZM545.13,593.07c1.72,0,3.26-.39,4.62-1.18,1.36-.79,2.44-1.9,3.22-3.33.79-1.43,1.18-3.08,1.18-4.95s-.39-3.55-1.18-4.97c-.79-1.42-1.86-2.52-3.22-3.31-1.36-.79-2.9-1.18-4.62-1.18s-3.26.39-4.62,1.18c-1.36.79-2.44,1.89-3.23,3.31-.79,1.42-1.18,3.07-1.18,4.97s.39,3.51,1.18,4.95c.79,1.43,1.86,2.54,3.23,3.33,1.36.79,2.9,1.18,4.62,1.18ZM554.2,594.83v-7.35l.39-3.91-.43-3.91v-16.73h2.15v31.91h-2.11Z"/>
          <path class="st3" d="M585.03,595.05c-2.24,0-4.35-.38-6.34-1.14-1.99-.76-3.53-1.74-4.62-2.95l.99-1.63c1.03,1.06,2.44,1.96,4.24,2.69,1.79.73,3.69,1.1,5.7,1.1s3.65-.26,4.92-.8c1.28-.53,2.22-1.24,2.84-2.13.62-.89.92-1.88.92-2.97,0-1.29-.34-2.32-1.03-3.1-.69-.77-1.59-1.39-2.71-1.85-1.12-.46-2.34-.85-3.66-1.16s-2.65-.65-4-1.01c-1.35-.36-2.58-.82-3.7-1.4-1.12-.57-2.01-1.35-2.69-2.34-.67-.99-1.01-2.27-1.01-3.85,0-1.43.37-2.75,1.12-3.96.75-1.2,1.91-2.18,3.48-2.92,1.58-.75,3.6-1.12,6.06-1.12,1.66,0,3.3.24,4.92.73,1.62.49,3,1.15,4.15,1.98l-.82,1.76c-1.26-.86-2.62-1.5-4.06-1.91-1.45-.42-2.85-.62-4.19-.62-1.92,0-3.51.27-4.77.82-1.26.54-2.19,1.27-2.79,2.17-.6.9-.9,1.91-.9,3.03,0,1.29.34,2.32,1.01,3.1s1.57,1.39,2.69,1.85c1.12.46,2.35.85,3.7,1.16,1.35.32,2.68.65,4,1.01,1.32.36,2.54.82,3.66,1.4,1.12.57,2.02,1.35,2.71,2.32.69.97,1.03,2.24,1.03,3.78,0,1.41-.39,2.72-1.16,3.93-.77,1.22-1.96,2.19-3.55,2.92s-3.63,1.1-6.13,1.1Z"/>
          <path class="st3" d="M603.3,594.83v-30.1h20.12v1.98h-17.93v26.14h18.58v1.98h-20.77ZM605.24,580.51v-1.94h16.3v1.94h-16.3Z"/>
          <path class="st3" d="M644.67,595.05c-2.24,0-4.31-.38-6.21-1.14-1.91-.76-3.56-1.83-4.97-3.2-1.41-1.38-2.49-2.99-3.27-4.84-.77-1.85-1.16-3.88-1.16-6.08s.39-4.24,1.16-6.08c.77-1.85,1.87-3.46,3.29-4.84s3.07-2.44,4.97-3.2c1.89-.76,3.96-1.14,6.19-1.14,2.12,0,4.11.34,5.96,1.03,1.85.69,3.43,1.73,4.75,3.14l-1.38,1.42c-1.29-1.26-2.72-2.17-4.28-2.73-1.56-.56-3.22-.84-4.97-.84-1.92,0-3.71.33-5.35.99-1.65.66-3.08,1.59-4.3,2.8-1.22,1.2-2.17,2.61-2.84,4.21-.67,1.61-1.01,3.35-1.01,5.25s.34,3.64,1.01,5.25c.67,1.61,1.62,3.01,2.84,4.21,1.22,1.2,2.65,2.14,4.3,2.79,1.65.66,3.43.99,5.35.99,1.75,0,3.4-.28,4.97-.84,1.56-.56,2.99-1.48,4.28-2.77l1.38,1.42c-1.32,1.4-2.9,2.46-4.75,3.16-1.85.7-3.83,1.05-5.96,1.05Z"/>
          <path class="st3" d="M677.82,603.18c-1.58-2.61-2.79-5.62-3.63-9.03s-1.27-7.11-1.27-11.09.42-7.7,1.27-11.16c.85-3.45,2.06-6.44,3.63-8.97h2.06c-1.69,2.87-2.92,5.96-3.7,9.29-.77,3.33-1.16,6.94-1.16,10.84s.39,7.51,1.16,10.84c.77,3.32,2.01,6.42,3.7,9.29h-2.06Z"/>
          <path class="st3" d="M698.93,595.05c-3.73,0-6.67-1.09-8.81-3.27-2.15-2.18-3.23-5.42-3.23-9.72v-17.33h2.19v17.24c0,3.76.86,6.54,2.58,8.34,1.72,1.81,4.16,2.71,7.31,2.71s5.55-.9,7.27-2.71c1.72-1.81,2.58-4.59,2.58-8.34v-17.24h2.19v17.33c0,4.3-1.07,7.54-3.22,9.72-2.15,2.18-5.1,3.27-8.86,3.27Z"/>
          <path class="st3" d="M729.16,595.05c-2.24,0-4.35-.38-6.34-1.14-1.99-.76-3.53-1.74-4.62-2.95l.99-1.63c1.03,1.06,2.45,1.96,4.24,2.69s3.69,1.1,5.7,1.1,3.65-.26,4.92-.8c1.28-.53,2.22-1.24,2.84-2.13.62-.89.92-1.88.92-2.97,0-1.29-.34-2.32-1.03-3.1s-1.59-1.39-2.71-1.85c-1.12-.46-2.34-.85-3.65-1.16-1.32-.32-2.65-.65-4-1.01-1.35-.36-2.58-.82-3.7-1.4-1.12-.57-2.02-1.35-2.69-2.34-.67-.99-1.01-2.27-1.01-3.85,0-1.43.37-2.75,1.12-3.96.74-1.2,1.91-2.18,3.48-2.92,1.58-.75,3.6-1.12,6.06-1.12,1.66,0,3.3.24,4.92.73,1.62.49,3,1.15,4.15,1.98l-.82,1.76c-1.26-.86-2.62-1.5-4.06-1.91s-2.85-.62-4.19-.62c-1.92,0-3.51.27-4.77.82-1.26.54-2.19,1.27-2.79,2.17-.6.9-.9,1.91-.9,3.03,0,1.29.34,2.32,1.01,3.1.67.77,1.57,1.39,2.69,1.85,1.12.46,2.35.85,3.7,1.16,1.35.32,2.68.65,4,1.01,1.32.36,2.54.82,3.66,1.4,1.12.57,2.02,1.35,2.71,2.32.69.97,1.03,2.24,1.03,3.78,0,1.41-.39,2.72-1.16,3.93-.78,1.22-1.96,2.19-3.55,2.92-1.59.73-3.63,1.1-6.13,1.1Z"/>
          <path class="st3" d="M744.26,603.18c1.66-2.87,2.88-5.96,3.65-9.29.77-3.33,1.16-6.94,1.16-10.84s-.39-7.51-1.16-10.84c-.77-3.32-1.99-6.42-3.65-9.29h2.02c1.58,2.52,2.79,5.51,3.66,8.97.86,3.45,1.29,7.17,1.29,11.16s-.43,7.68-1.29,11.09c-.86,3.41-2.08,6.42-3.66,9.03h-2.02Z"/>
          <path class="st3" d="M246.88,646.61c-2.09,0-3.98-.48-5.65-1.44-1.68-.96-3-2.3-3.98-4.02-.97-1.72-1.46-3.7-1.46-5.93s.49-4.25,1.46-5.96c.97-1.71,2.3-3.04,3.98-4,1.68-.96,3.56-1.44,5.65-1.44,1.98,0,3.76.46,5.35,1.38,1.59.92,2.85,2.22,3.78,3.91.93,1.69,1.4,3.73,1.4,6.11s-.46,4.34-1.38,6.06c-.92,1.72-2.17,3.04-3.76,3.96-1.59.92-3.39,1.38-5.4,1.38ZM247.01,644.67c1.72,0,3.26-.39,4.62-1.18,1.36-.79,2.44-1.9,3.23-3.33.79-1.43,1.18-3.08,1.18-4.95s-.39-3.55-1.18-4.97c-.79-1.42-1.86-2.52-3.23-3.31-1.36-.79-2.9-1.18-4.62-1.18s-3.26.39-4.62,1.18c-1.36.79-2.44,1.89-3.23,3.31-.79,1.42-1.18,3.07-1.18,4.97s.39,3.51,1.18,4.95c.79,1.43,1.86,2.54,3.23,3.33,1.36.79,2.9,1.18,4.62,1.18ZM256.08,646.43v-7.35l.39-3.91-.43-3.91v-16.73h2.15v31.91h-2.11Z"/>
          <path class="st3" d="M268.34,618.53c-.49,0-.9-.17-1.25-.52s-.52-.75-.52-1.2c0-.49.17-.9.52-1.25s.76-.52,1.25-.52c.52,0,.94.17,1.27.49.33.33.49.74.49,1.23s-.17.9-.49,1.25c-.33.34-.75.52-1.27.52ZM267.26,646.43v-22.45h2.15v22.45h-2.15Z"/>
          <path class="st3" d="M284.16,646.61c-1.86,0-3.6-.27-5.22-.82-1.62-.54-2.87-1.23-3.76-2.06l.99-1.72c.86.75,2.01,1.38,3.44,1.91,1.43.53,2.98.8,4.64.8,2.35,0,4.04-.39,5.07-1.16,1.03-.77,1.55-1.79,1.55-3.05,0-.92-.27-1.64-.8-2.17-.53-.53-1.24-.94-2.13-1.23-.89-.29-1.86-.52-2.92-.71-1.06-.19-2.12-.39-3.18-.62-1.06-.23-2.04-.56-2.92-.99-.89-.43-1.6-1.02-2.13-1.78-.53-.76-.8-1.77-.8-3.03,0-1.15.31-2.18.95-3.1.63-.92,1.58-1.66,2.84-2.21,1.26-.56,2.84-.84,4.73-.84,1.4,0,2.82.2,4.24.6,1.42.4,2.57.93,3.46,1.59l-.99,1.72c-.95-.72-2.01-1.23-3.18-1.55-1.18-.31-2.37-.47-3.57-.47-2.18,0-3.78.4-4.79,1.2-1.02.8-1.53,1.81-1.53,3.01,0,.95.26,1.7.8,2.26.53.56,1.24.99,2.13,1.29.89.3,1.86.54,2.92.73,1.06.19,2.12.39,3.18.62,1.06.23,2.04.55,2.92.97.89.42,1.6.99,2.13,1.72.53.73.8,1.71.8,2.95s-.34,2.31-1.01,3.23c-.67.92-1.67,1.63-2.99,2.15-1.32.52-2.94.77-4.86.77Z"/>
          <path class="st3" d="M307.94,646.61c-2.18,0-4.12-.49-5.83-1.46-1.71-.97-3.05-2.32-4.04-4.04-.99-1.72-1.48-3.68-1.48-5.89s.49-4.21,1.48-5.93c.99-1.72,2.34-3.06,4.04-4.02,1.71-.96,3.65-1.44,5.83-1.44,1.81,0,3.45.34,4.92,1.03,1.48.69,2.67,1.72,3.59,3.1l-1.59,1.16c-.8-1.15-1.81-1.99-3.01-2.54-1.2-.54-2.51-.82-3.91-.82-1.75,0-3.32.39-4.71,1.18-1.39.79-2.48,1.89-3.27,3.31-.79,1.42-1.18,3.07-1.18,4.97s.39,3.55,1.18,4.97c.79,1.42,1.88,2.52,3.27,3.31,1.39.79,2.96,1.18,4.71,1.18,1.4,0,2.71-.27,3.91-.82,1.2-.54,2.21-1.39,3.01-2.54l1.59,1.16c-.92,1.38-2.11,2.41-3.59,3.1-1.48.69-3.12,1.03-4.92,1.03Z"/>
          <path class="st3" d="M322.52,646.43v-31.91h2.15v31.91h-2.15Z"/>
          <path class="st3" d="M342.51,646.61c-2.15,0-4.06-.49-5.74-1.46-1.68-.97-3.01-2.32-4-4.04-.99-1.72-1.48-3.68-1.48-5.89s.49-4.21,1.48-5.91c.99-1.71,2.32-3.05,4-4.02,1.68-.97,3.59-1.46,5.74-1.46s4.07.49,5.76,1.46,3.02,2.31,4,4.02c.97,1.71,1.46,3.68,1.46,5.91s-.49,4.17-1.46,5.89c-.97,1.72-2.31,3.07-4,4.04-1.69.98-3.61,1.46-5.76,1.46ZM342.51,644.67c1.72,0,3.27-.39,4.64-1.18,1.38-.79,2.45-1.9,3.23-3.33.77-1.43,1.16-3.08,1.16-4.95s-.39-3.55-1.16-4.97c-.77-1.42-1.85-2.52-3.23-3.31-1.38-.79-2.92-1.18-4.64-1.18s-3.26.39-4.62,1.18c-1.36.79-2.44,1.89-3.23,3.31-.79,1.42-1.18,3.07-1.18,4.97s.39,3.51,1.18,4.95c.79,1.43,1.86,2.54,3.23,3.33,1.36.79,2.9,1.18,4.62,1.18Z"/>
          <path class="st3" d="M366.08,646.61c-1.86,0-3.6-.27-5.22-.82-1.62-.54-2.87-1.23-3.76-2.06l.99-1.72c.86.75,2.01,1.38,3.44,1.91,1.43.53,2.98.8,4.64.8,2.35,0,4.04-.39,5.07-1.16,1.03-.77,1.55-1.79,1.55-3.05,0-.92-.27-1.64-.8-2.17-.53-.53-1.24-.94-2.13-1.23-.89-.29-1.86-.52-2.92-.71-1.06-.19-2.12-.39-3.18-.62-1.06-.23-2.04-.56-2.92-.99-.89-.43-1.6-1.02-2.13-1.78-.53-.76-.8-1.77-.8-3.03,0-1.15.31-2.18.95-3.1.63-.92,1.58-1.66,2.84-2.21,1.26-.56,2.84-.84,4.73-.84,1.4,0,2.82.2,4.24.6,1.42.4,2.57.93,3.46,1.59l-.99,1.72c-.95-.72-2.01-1.23-3.18-1.55-1.18-.31-2.37-.47-3.57-.47-2.18,0-3.78.4-4.79,1.2-1.02.8-1.53,1.81-1.53,3.01,0,.95.26,1.7.8,2.26.53.56,1.24.99,2.13,1.29.89.3,1.86.54,2.92.73,1.06.19,2.12.39,3.18.62,1.06.23,2.04.55,2.92.97.89.42,1.6.99,2.13,1.72.53.73.8,1.71.8,2.95s-.34,2.31-1.01,3.23c-.67.92-1.67,1.63-2.99,2.15-1.32.52-2.94.77-4.86.77Z"/>
          <path class="st3" d="M390.07,646.61c-1.92,0-3.58-.35-4.99-1.05-1.4-.7-2.49-1.76-3.25-3.18-.76-1.42-1.14-3.17-1.14-5.27v-13.11h2.15v12.94c0,2.52.65,4.44,1.93,5.76,1.29,1.32,3.11,1.98,5.46,1.98,1.69,0,3.15-.36,4.39-1.07,1.23-.72,2.18-1.73,2.84-3.03.66-1.3.99-2.84.99-4.62v-11.95h2.15v22.45h-2.06v-6.23l.3.73c-.66,1.75-1.76,3.13-3.29,4.15-1.53,1.02-3.36,1.53-5.48,1.53Z"/>
          <path class="st3" d="M409.72,646.43v-22.45h2.06v6.15l-.21-.69c.63-1.81,1.69-3.2,3.18-4.17,1.49-.97,3.35-1.46,5.59-1.46v2.11c-.09,0-.17,0-.26-.02-.09-.01-.17-.02-.26-.02-2.49,0-4.44.78-5.85,2.34-1.4,1.56-2.11,3.73-2.11,6.51v11.7h-2.15Z"/>
          <path class="st3" d="M435.18,646.61c-2.26,0-4.26-.49-6-1.46-1.73-.97-3.1-2.32-4.08-4.04-.99-1.72-1.48-3.68-1.48-5.89s.47-4.21,1.4-5.91c.93-1.71,2.21-3.05,3.85-4.02s3.47-1.46,5.5-1.46,3.86.47,5.48,1.42c1.62.95,2.9,2.27,3.83,3.98.93,1.71,1.4,3.68,1.4,5.91,0,.09,0,.18-.02.28-.01.1-.02.21-.02.32h-19.82v-1.68h18.66l-.86.82c.03-1.75-.34-3.32-1.1-4.71-.76-1.39-1.78-2.48-3.07-3.27-1.29-.79-2.78-1.18-4.47-1.18s-3.15.39-4.45,1.18c-1.31.79-2.33,1.88-3.07,3.27-.75,1.39-1.12,2.97-1.12,4.75v.39c0,1.83.41,3.46,1.23,4.88s1.94,2.52,3.38,3.31c1.43.79,3.07,1.18,4.9,1.18,1.43,0,2.77-.26,4.02-.77,1.25-.52,2.3-1.3,3.16-2.36l1.25,1.42c-.98,1.2-2.2,2.11-3.68,2.73-1.48.62-3.07.92-4.79.92Z"/>
          <path class="st3" d="M459.08,625.84v-1.85h13.42v1.85h-13.42ZM463.21,646.43v-25.89c0-1.86.54-3.36,1.61-4.49,1.07-1.13,2.62-1.7,4.62-1.7.83,0,1.65.12,2.45.37.8.24,1.46.61,1.98,1.1l-.86,1.63c-.43-.43-.95-.75-1.55-.95-.6-.2-1.25-.3-1.94-.3-1.38,0-2.42.38-3.14,1.14-.72.76-1.07,1.89-1.07,3.38v3.78l.04,1.03v20.9h-2.15Z"/>
          <path class="st3" d="M485.27,646.61c-2.15,0-4.06-.49-5.74-1.46-1.68-.97-3.01-2.32-4-4.04-.99-1.72-1.48-3.68-1.48-5.89s.49-4.21,1.48-5.91c.99-1.71,2.32-3.05,4-4.02,1.68-.97,3.59-1.46,5.74-1.46s4.07.49,5.76,1.46,3.02,2.31,4,4.02c.97,1.71,1.46,3.68,1.46,5.91s-.49,4.17-1.46,5.89c-.97,1.72-2.31,3.07-4,4.04-1.69.98-3.61,1.46-5.76,1.46ZM485.27,644.67c1.72,0,3.27-.39,4.64-1.18,1.38-.79,2.45-1.9,3.23-3.33.77-1.43,1.16-3.08,1.16-4.95s-.39-3.55-1.16-4.97c-.77-1.42-1.85-2.52-3.23-3.31-1.38-.79-2.92-1.18-4.64-1.18s-3.26.39-4.62,1.18c-1.36.79-2.44,1.89-3.23,3.31-.79,1.42-1.18,3.07-1.18,4.97s.39,3.51,1.18,4.95c.79,1.43,1.86,2.54,3.23,3.33,1.36.79,2.9,1.18,4.62,1.18Z"/>
          <path class="st3" d="M503.16,646.43v-22.45h2.06v6.15l-.21-.69c.63-1.81,1.69-3.2,3.18-4.17,1.49-.97,3.35-1.46,5.59-1.46v2.11c-.09,0-.17,0-.26-.02-.09-.01-.17-.02-.26-.02-2.49,0-4.44.78-5.85,2.34-1.4,1.56-2.11,3.73-2.11,6.51v11.7h-2.15Z"/>
          <path class="st3" d="M519.71,646.43v-22.45h2.06v6.19l-.3-.69c.66-1.75,1.76-3.13,3.31-4.15,1.55-1.02,3.41-1.53,5.59-1.53s4.12.57,5.65,1.7c1.53,1.13,2.5,2.82,2.9,5.05l-.73-.3c.6-1.92,1.73-3.48,3.4-4.67,1.66-1.19,3.68-1.78,6.06-1.78,1.81,0,3.38.35,4.71,1.05,1.33.7,2.37,1.76,3.12,3.18s1.12,3.18,1.12,5.27v13.12h-2.15v-12.94c0-2.52-.62-4.44-1.85-5.76-1.23-1.32-2.95-1.98-5.16-1.98-1.69,0-3.15.36-4.39,1.08-1.23.72-2.18,1.72-2.84,3.01-.66,1.29-.99,2.84-.99,4.64v11.95h-2.15v-12.94c0-2.52-.62-4.44-1.85-5.76-1.23-1.32-2.95-1.98-5.16-1.98-1.69,0-3.15.36-4.39,1.08-1.23.72-2.18,1.72-2.84,3.01-.66,1.29-.99,2.84-.99,4.64v11.95h-2.15Z"/>
          <path class="st3" d="M571.53,646.61c-1.66,0-3.1-.26-4.32-.8-1.22-.53-2.15-1.28-2.79-2.26-.65-.97-.97-2.09-.97-3.35,0-1.15.26-2.19.8-3.12.53-.93,1.41-1.69,2.64-2.28,1.23-.59,2.88-.88,4.94-.88h8.26v1.68h-8.21c-2.32,0-3.95.43-4.88,1.29-.93.86-1.4,1.94-1.4,3.23,0,1.43.54,2.58,1.63,3.44,1.09.86,2.62,1.29,4.6,1.29s3.49-.43,4.79-1.29c1.3-.86,2.27-2.11,2.9-3.74l.6,1.46c-.6,1.63-1.63,2.93-3.08,3.89-1.45.96-3.29,1.44-5.53,1.44ZM579.61,646.43v-5.12l-.09-.77v-8.43c0-2.09-.57-3.68-1.7-4.77-1.13-1.09-2.79-1.63-4.97-1.63-1.55,0-2.99.27-4.32.8-1.33.53-2.47,1.21-3.42,2.04l-1.07-1.55c1.12-1,2.46-1.78,4.04-2.34,1.58-.56,3.22-.84,4.94-.84,2.78,0,4.92.7,6.41,2.11,1.49,1.41,2.24,3.5,2.24,6.28v14.23h-2.06Z"/>
          <path class="st3" d="M586.83,625.84v-1.85h13.42v1.85h-13.42ZM597.07,646.61c-1.98,0-3.49-.54-4.54-1.63-1.05-1.09-1.57-2.58-1.57-4.47v-21.41h2.15v21.2c0,1.43.36,2.54,1.08,3.31.72.77,1.75,1.16,3.1,1.16s2.57-.42,3.48-1.25l.9,1.5c-.57.54-1.27.95-2.08,1.2-.82.26-1.66.39-2.52.39Z"/>
          <path class="st3" d="M613.32,646.61c-1.86,0-3.61-.27-5.22-.82-1.62-.54-2.87-1.23-3.76-2.06l.99-1.72c.86.75,2.01,1.38,3.44,1.91,1.43.53,2.98.8,4.64.8,2.35,0,4.04-.39,5.07-1.16,1.03-.77,1.55-1.79,1.55-3.05,0-.92-.27-1.64-.8-2.17-.53-.53-1.24-.94-2.13-1.23-.89-.29-1.86-.52-2.92-.71-1.06-.19-2.12-.39-3.18-.62-1.06-.23-2.04-.56-2.92-.99-.89-.43-1.6-1.02-2.13-1.78-.53-.76-.79-1.77-.79-3.03,0-1.15.31-2.18.95-3.1.63-.92,1.58-1.66,2.84-2.21,1.26-.56,2.84-.84,4.73-.84,1.4,0,2.82.2,4.24.6,1.42.4,2.57.93,3.46,1.59l-.99,1.72c-.95-.72-2.01-1.23-3.18-1.55-1.18-.31-2.37-.47-3.57-.47-2.18,0-3.78.4-4.79,1.2-1.02.8-1.53,1.81-1.53,3.01,0,.95.26,1.7.8,2.26.53.56,1.24.99,2.13,1.29.89.3,1.86.54,2.92.73,1.06.19,2.12.39,3.18.62,1.06.23,2.04.55,2.92.97.89.42,1.6.99,2.13,1.72.53.73.79,1.71.79,2.95s-.34,2.31-1.01,3.23c-.67.92-1.67,1.63-2.99,2.15s-2.94.77-4.86.77Z"/>
          <path class="st3" d="M627.94,646.61c-.49,0-.91-.18-1.27-.54-.36-.36-.54-.8-.54-1.31s.18-.95.54-1.29c.36-.34.78-.52,1.27-.52s.91.17,1.27.52c.36.34.54.77.54,1.29s-.18.95-.54,1.31c-.36.36-.78.54-1.27.54Z"/>
        </g>
        <rect class="st9" x="147.13" y="745.66" width="813.45" height="49.02" rx="24.51" ry="24.51"/>
        <g>
          <path class="st3" d="M233.1,780.55c-2.06,0-3.81-.36-5.25-1.08-1.44-.72-2.54-1.73-3.29-3.03s-1.12-2.81-1.12-4.53.29-3.31.87-4.83c.58-1.52,1.42-2.87,2.52-4.05,1.1-1.18,2.43-2.1,4-2.77,1.57-.67,3.35-1.01,5.33-1.01,1.64,0,3.09.25,4.35.75,1.26.5,2.24,1.21,2.94,2.13l-1.08.99c-.68-.82-1.54-1.43-2.59-1.84-1.05-.41-2.3-.62-3.74-.62-1.7,0-3.23.3-4.59.88-1.36.59-2.52,1.4-3.48,2.43s-1.7,2.22-2.22,3.57c-.52,1.35-.78,2.79-.78,4.31,0,1.44.31,2.71.93,3.81.62,1.1,1.54,1.96,2.77,2.57s2.75.92,4.54.92c1.44,0,2.75-.21,3.92-.65,1.17-.43,2.17-1.05,3.02-1.88l.93,1.05c-.9.9-2.05,1.61-3.45,2.12-1.4.51-2.91.77-4.53.77Z"/>
          <path class="st3" d="M250.29,780.52c-1.34,0-2.52-.26-3.54-.78-1.02-.52-1.81-1.27-2.37-2.25-.56-.98-.84-2.14-.84-3.48s.21-2.61.65-3.75c.43-1.14,1.04-2.13,1.84-2.97.8-.84,1.74-1.49,2.82-1.96,1.08-.47,2.26-.71,3.54-.71,1.38,0,2.55.25,3.51.74s1.69,1.2,2.21,2.13c.51.93.77,2.05.77,3.38.02,1.86-.33,3.52-1.04,4.98-.71,1.46-1.71,2.6-3,3.43s-2.81,1.25-4.54,1.25ZM250.58,779.17c1.42,0,2.68-.34,3.78-1.02,1.1-.68,1.97-1.62,2.61-2.83.64-1.21.96-2.58.96-4.09,0-1.68-.49-2.97-1.46-3.89-.97-.91-2.34-1.36-4.09-1.36-1.4,0-2.66.34-3.77,1.04-1.11.69-1.99,1.63-2.62,2.83-.64,1.2-.96,2.56-.96,4.08,0,1.66.48,2.95,1.46,3.87.97.92,2.33,1.38,4.09,1.38ZM256.29,780.4l.96-4.89.87-2.73.21-2.88,1.02-5.16h1.5l-3.12,15.66h-1.44Z"/>
          <path class="st3" d="M286.31,764.62c1.42,0,2.56.28,3.44.83.87.55,1.46,1.33,1.79,2.34.32,1.01.34,2.2.06,3.56l-1.83,9.06h-1.5l1.83-9.06c.32-1.66.14-2.97-.53-3.93s-1.85-1.44-3.55-1.44-3.1.46-4.26,1.39c-1.16.93-1.93,2.32-2.31,4.16l-1.8,8.88h-1.5l1.83-9.06c.32-1.66.15-2.97-.52-3.93-.67-.96-1.86-1.44-3.56-1.44s-3.16.5-4.32,1.5c-1.16,1-1.94,2.47-2.34,4.41l-1.71,8.52h-1.5l3.12-15.66h1.47l-.9,4.53-.39-.39c.74-1.48,1.71-2.56,2.91-3.24,1.2-.68,2.55-1.02,4.05-1.02,1.12,0,2.07.19,2.86.57s1.4.92,1.81,1.62c.42.7.65,1.54.69,2.52l-.75-.18c.76-1.52,1.78-2.66,3.06-3.41s2.73-1.12,4.35-1.12Z"/>
          <path class="st3" d="M294.77,786.22l4.29-21.48h1.47l-.99,4.89-.84,2.73-.21,2.88-2.22,10.98h-1.5ZM304.4,780.52c-1.36,0-2.52-.25-3.49-.74-.97-.49-1.71-1.2-2.21-2.13-.5-.93-.76-2.05-.78-3.38,0-1.88.35-3.54,1.06-5,.71-1.45,1.71-2.59,3-3.42,1.29-.83,2.79-1.25,4.52-1.25,1.36,0,2.54.26,3.56.78,1.01.52,1.8,1.27,2.37,2.25.57.98.85,2.14.85,3.48s-.22,2.61-.66,3.75c-.44,1.14-1.06,2.13-1.85,2.97s-1.72,1.5-2.8,1.96-2.27.71-3.57.71ZM304.43,779.17c1.42,0,2.68-.34,3.78-1.02,1.1-.68,1.97-1.62,2.6-2.83s.94-2.58.94-4.09c0-1.68-.48-2.97-1.46-3.89-.97-.91-2.33-1.36-4.09-1.36-1.4,0-2.66.34-3.77,1.02-1.11.68-1.99,1.62-2.62,2.82-.64,1.2-.96,2.57-.96,4.11,0,1.66.49,2.95,1.47,3.87.98.92,2.35,1.38,4.11,1.38Z"/>
          <path class="st3" d="M322.7,780.52c-1.34,0-2.52-.26-3.54-.78-1.02-.52-1.81-1.27-2.37-2.25-.56-.98-.84-2.14-.84-3.48s.21-2.61.65-3.75c.43-1.14,1.04-2.13,1.84-2.97.8-.84,1.74-1.49,2.82-1.96,1.08-.47,2.26-.71,3.54-.71,1.38,0,2.55.25,3.51.74s1.69,1.2,2.21,2.13c.51.93.77,2.05.77,3.38.02,1.86-.33,3.52-1.04,4.98-.71,1.46-1.71,2.6-3,3.43s-2.81,1.25-4.54,1.25ZM323,779.17c1.42,0,2.68-.34,3.78-1.02,1.1-.68,1.97-1.62,2.61-2.83.64-1.21.96-2.58.96-4.09,0-1.68-.49-2.97-1.46-3.89-.97-.91-2.34-1.36-4.09-1.36-1.4,0-2.66.34-3.77,1.04-1.11.69-1.99,1.63-2.62,2.83-.64,1.2-.96,2.56-.96,4.08,0,1.66.48,2.95,1.46,3.87.97.92,2.33,1.38,4.09,1.38ZM328.7,780.4l.96-4.89.87-2.73.21-2.88,1.02-5.16h1.5l-3.12,15.66h-1.44Z"/>
          <path class="st3" d="M336.44,780.4l3.12-15.66h1.5l-3.12,15.66h-1.5ZM341.24,760.93c-.34,0-.62-.11-.83-.33s-.31-.48-.31-.78c0-.36.12-.67.38-.93.25-.26.56-.39.94-.39.32,0,.59.11.81.33.22.22.33.48.33.78,0,.38-.12.7-.38.95-.25.25-.57.38-.94.38Z"/>
          <path class="st3" d="M349.85,786.34c-1.44,0-2.74-.22-3.9-.65-1.16-.43-2.12-1.04-2.88-1.81l.96-1.11c.64.7,1.47,1.25,2.5,1.63,1.03.39,2.17.58,3.44.58,2.1,0,3.73-.49,4.9-1.47,1.17-.98,1.96-2.5,2.35-4.56l.9-4.5.75-2.25.21-2.34,1.02-5.13h1.44l-2.79,13.98c-.52,2.68-1.51,4.62-2.96,5.82-1.45,1.2-3.44,1.8-5.96,1.8ZM350.93,779.83c-1.38,0-2.58-.25-3.62-.75-1.03-.5-1.83-1.22-2.38-2.16-.56-.94-.84-2.05-.84-3.33s.22-2.46.66-3.54,1.05-2.03,1.85-2.85c.79-.82,1.73-1.46,2.82-1.91,1.09-.45,2.28-.67,3.58-.67s2.47.23,3.45.69c.98.46,1.74,1.13,2.29,2.02.55.89.83,2,.83,3.32.02,1.72-.33,3.27-1.05,4.65-.72,1.38-1.72,2.48-3.01,3.3s-2.82,1.23-4.58,1.23ZM351.2,778.48c1.44,0,2.71-.33,3.81-.97,1.1-.65,1.97-1.55,2.62-2.69.65-1.14.98-2.44.98-3.9,0-1.56-.5-2.77-1.49-3.64-.99-.87-2.37-1.3-4.12-1.3-1.42,0-2.69.33-3.79.97-1.11.65-1.99,1.54-2.64,2.69-.65,1.14-.97,2.44-.97,3.9,0,1.56.49,2.78,1.48,3.65.99.87,2.36,1.3,4.12,1.3Z"/>
          <path class="st3" d="M375.2,764.62c1.42,0,2.57.28,3.46.83.89.55,1.5,1.33,1.83,2.34.33,1.01.35,2.2.08,3.56l-1.8,9.06h-1.5l1.8-9.06c.34-1.66.15-2.97-.56-3.93-.71-.96-1.95-1.44-3.71-1.44s-3.27.5-4.47,1.48c-1.2.99-2,2.47-2.4,4.43l-1.71,8.52h-1.5l3.12-15.66h1.47l-.9,4.53-.39-.39c.74-1.48,1.73-2.56,2.97-3.24,1.24-.68,2.64-1.02,4.2-1.02Z"/>
          <path class="st3" d="M399.32,780.52c-1.4,0-2.62-.26-3.66-.79-1.04-.53-1.85-1.29-2.42-2.27-.57-.98-.85-2.13-.85-3.45,0-1.8.38-3.41,1.15-4.82s1.83-2.52,3.18-3.34,2.9-1.23,4.63-1.23c1.42,0,2.65.27,3.68.79,1.03.53,1.83,1.28,2.4,2.25.57.97.85,2.13.85,3.47,0,1.8-.39,3.4-1.15,4.81-.77,1.41-1.83,2.53-3.18,3.34-1.35.82-2.9,1.23-4.64,1.23ZM399.44,779.17c1.42,0,2.68-.34,3.78-1.02,1.1-.68,1.97-1.62,2.61-2.83.64-1.21.96-2.58.96-4.09,0-1.68-.49-2.97-1.46-3.89-.97-.91-2.34-1.36-4.09-1.36-1.4,0-2.66.34-3.77,1.04-1.11.69-1.99,1.63-2.62,2.83-.64,1.2-.96,2.56-.96,4.08,0,1.66.48,2.95,1.46,3.87.97.92,2.33,1.38,4.09,1.38Z"/>
          <path class="st3" d="M411.23,780.4l3.12-15.66h1.47l-.96,4.71-.18-.54c.68-1.42,1.6-2.49,2.76-3.21,1.16-.72,2.62-1.08,4.38-1.08l-.27,1.47c-.08,0-.16,0-.24-.02-.08,0-.16-.01-.24-.01-1.76,0-3.22.52-4.37,1.58-1.15,1.05-1.94,2.62-2.35,4.72l-1.62,8.04h-1.5Z"/>
          <path class="st3" d="M435.05,780.52c-1.24,0-2.42-.18-3.52-.55s-1.96-.84-2.56-1.43l.81-1.17c.58.56,1.35,1,2.32,1.33s2,.5,3.08.5c1.62,0,2.88-.29,3.77-.87.89-.58,1.33-1.37,1.33-2.37,0-.68-.22-1.19-.65-1.53-.43-.34-.99-.6-1.68-.78s-1.42-.35-2.19-.51c-.77-.16-1.5-.36-2.19-.6-.69-.24-1.25-.61-1.68-1.11s-.65-1.19-.65-2.07c0-.96.27-1.79.81-2.5s1.3-1.26,2.28-1.65c.98-.39,2.13-.58,3.45-.58.98,0,1.94.14,2.9.41.95.27,1.71.64,2.27,1.12l-.69,1.17c-.6-.46-1.31-.8-2.12-1.04-.81-.23-1.63-.34-2.47-.34-1.54,0-2.75.3-3.63.9-.88.6-1.32,1.39-1.32,2.37,0,.68.22,1.2.66,1.56.44.36,1,.63,1.68.81.68.18,1.41.35,2.19.5.78.15,1.52.35,2.21.6s1.25.61,1.68,1.09c.43.48.65,1.16.65,2.04,0,.98-.28,1.83-.84,2.54s-1.34,1.25-2.34,1.62-2.18.55-3.54.55Z"/>
          <path class="st3" d="M445.1,780.4l3.12-15.66h1.5l-3.12,15.66h-1.5ZM449.9,760.93c-.34,0-.62-.11-.83-.33s-.31-.48-.31-.78c0-.36.12-.67.38-.93.25-.26.56-.39.94-.39.32,0,.59.11.81.33.22.22.33.48.33.78,0,.38-.12.7-.38.95-.25.25-.57.38-.94.38Z"/>
          <path class="st3" d="M453.23,766.03l.24-1.29h9.39l-.24,1.29h-9.39ZM457.58,780.52c-.86,0-1.59-.18-2.18-.54-.59-.36-1-.88-1.21-1.56-.22-.68-.24-1.49-.06-2.43l2.94-14.67h1.5l-2.91,14.55c-.22,1.1-.15,1.94.23,2.5.37.57,1.05.86,2.06.86.48,0,.93-.08,1.36-.22.43-.15.83-.37,1.19-.65l.45,1.11c-.48.38-1.02.65-1.6.81-.59.16-1.18.24-1.75.24Z"/>
          <path class="st3" d="M471.23,780.52c-1.46,0-2.73-.26-3.81-.79-1.08-.53-1.91-1.29-2.48-2.27-.57-.98-.85-2.15-.85-3.51,0-1.78.38-3.37,1.12-4.77.75-1.4,1.77-2.51,3.06-3.33s2.74-1.23,4.36-1.23c1.38,0,2.56.26,3.54.78.98.52,1.74,1.27,2.29,2.24.55.97.83,2.14.83,3.52,0,.3-.02.6-.06.9-.04.3-.08.58-.12.84h-13.89l.21-1.17h12.96l-.6.51c.22-1.38.13-2.54-.27-3.46-.4-.93-1.03-1.64-1.88-2.13-.85-.49-1.87-.74-3.04-.74-1.36,0-2.58.35-3.65,1.04-1.07.69-1.91,1.63-2.5,2.82-.6,1.19-.9,2.56-.9,4.12,0,1.7.49,3,1.47,3.92.98.91,2.42,1.36,4.32,1.36,1.12,0,2.15-.18,3.08-.55s1.69-.88,2.29-1.54l.69,1.05c-.68.74-1.56,1.33-2.65,1.75-1.09.43-2.27.65-3.52.65Z"/>
          <path class="st3" d="M482.75,773.02l.27-1.35h7.71l-.27,1.35h-7.71Z"/>
          <path class="st3" d="M494,780.4l4.44-22.26h1.5l-4.44,22.26h-1.5Z"/>
          <path class="st3" d="M508.73,780.52c-1.46,0-2.73-.26-3.81-.79-1.08-.53-1.91-1.29-2.48-2.27-.57-.98-.85-2.15-.85-3.51,0-1.78.38-3.37,1.12-4.77.75-1.4,1.77-2.51,3.06-3.33s2.74-1.23,4.36-1.23c1.38,0,2.56.26,3.54.78.98.52,1.74,1.27,2.29,2.24.55.97.83,2.14.83,3.52,0,.3-.02.6-.06.9-.04.3-.08.58-.12.84h-13.89l.21-1.17h12.96l-.6.51c.22-1.38.13-2.54-.27-3.46-.4-.93-1.03-1.64-1.88-2.13-.85-.49-1.87-.74-3.04-.74-1.36,0-2.58.35-3.65,1.04-1.07.69-1.91,1.63-2.5,2.82-.6,1.19-.9,2.56-.9,4.12,0,1.7.49,3,1.47,3.92.98.91,2.42,1.36,4.32,1.36,1.12,0,2.15-.18,3.08-.55s1.69-.88,2.29-1.54l.69,1.05c-.68.74-1.56,1.33-2.65,1.75-1.09.43-2.27.65-3.52.65Z"/>
          <path class="st3" d="M523.49,780.4l-3.96-15.66h1.53l3.69,14.82h-.72l9.57-14.82h1.59l-10.17,15.66h-1.53Z"/>
          <path class="st3" d="M541.76,780.52c-1.46,0-2.73-.26-3.81-.79-1.08-.53-1.91-1.29-2.48-2.27-.57-.98-.85-2.15-.85-3.51,0-1.78.38-3.37,1.12-4.77.75-1.4,1.77-2.51,3.06-3.33s2.74-1.23,4.36-1.23c1.38,0,2.56.26,3.54.78.98.52,1.74,1.27,2.29,2.24.55.97.83,2.14.83,3.52,0,.3-.02.6-.06.9s-.08.58-.12.84h-13.89l.21-1.17h12.96l-.6.51c.22-1.38.13-2.54-.27-3.46s-1.03-1.64-1.88-2.13c-.85-.49-1.87-.74-3.04-.74-1.36,0-2.57.35-3.64,1.04-1.07.69-1.91,1.63-2.5,2.82-.6,1.19-.9,2.56-.9,4.12,0,1.7.49,3,1.47,3.92.98.91,2.42,1.36,4.32,1.36,1.12,0,2.14-.18,3.08-.55.93-.37,1.69-.88,2.29-1.54l.69,1.05c-.68.74-1.56,1.33-2.65,1.75-1.09.43-2.27.65-3.53.65Z"/>
          <path class="st3" d="M552.8,780.4l4.44-22.26h1.5l-4.44,22.26h-1.5Z"/>
          <path class="st3" d="M578.42,780.55c-2.06,0-3.81-.36-5.25-1.08-1.44-.72-2.54-1.73-3.29-3.03s-1.12-2.81-1.12-4.53.29-3.31.87-4.83c.58-1.52,1.42-2.87,2.52-4.05,1.1-1.18,2.43-2.1,4-2.77,1.57-.67,3.34-1.01,5.33-1.01,1.64,0,3.09.25,4.35.75,1.26.5,2.24,1.21,2.94,2.13l-1.08.99c-.68-.82-1.54-1.43-2.59-1.84-1.05-.41-2.3-.62-3.74-.62-1.7,0-3.23.3-4.59.88-1.36.59-2.52,1.4-3.48,2.43s-1.7,2.22-2.22,3.57c-.52,1.35-.78,2.79-.78,4.31,0,1.44.31,2.71.93,3.81.62,1.1,1.54,1.96,2.77,2.57,1.23.61,2.75.92,4.54.92,1.44,0,2.75-.21,3.92-.65,1.17-.43,2.17-1.05,3.02-1.88l.93,1.05c-.9.9-2.05,1.61-3.45,2.12-1.4.51-2.91.77-4.53.77Z"/>
          <path class="st3" d="M598.79,780.55c-2.06,0-3.8-.36-5.23-1.08-1.43-.72-2.52-1.73-3.25-3.03-.74-1.3-1.11-2.81-1.11-4.53s.29-3.31.87-4.83c.58-1.52,1.42-2.87,2.5-4.05,1.09-1.18,2.41-2.1,3.96-2.77s3.29-1.01,5.24-1.01c2.06,0,3.81.36,5.25,1.08,1.44.72,2.53,1.73,3.27,3.03.74,1.3,1.11,2.81,1.11,4.53s-.29,3.31-.87,4.83-1.42,2.87-2.52,4.05c-1.1,1.18-2.42,2.11-3.97,2.77-1.55.67-3.29,1.01-5.24,1.01ZM598.94,779.14c1.66,0,3.16-.29,4.5-.88s2.48-1.4,3.43-2.43c.95-1.03,1.68-2.22,2.19-3.57.51-1.35.76-2.79.76-4.31s-.31-2.73-.93-3.83c-.62-1.09-1.54-1.94-2.75-2.55-1.21-.61-2.71-.92-4.51-.92-1.66,0-3.16.3-4.5.88-1.34.59-2.49,1.4-3.44,2.43s-1.68,2.22-2.21,3.57c-.52,1.35-.78,2.79-.78,4.31,0,1.44.31,2.71.93,3.81.62,1.1,1.54,1.96,2.76,2.57s2.73.92,4.53.92Z"/>
          <path class="st3" d="M611.63,783.4l.15-.78,6.75-4.95c.78-.56,1.38-1.05,1.79-1.47s.69-.8.84-1.14c.15-.34.23-.69.23-1.05,0-.68-.28-1.21-.83-1.58-.55-.37-1.33-.55-2.36-.55-.86,0-1.63.12-2.32.38-.69.25-1.3.6-1.82,1.06l-.72-.72c.58-.56,1.29-.99,2.14-1.29.85-.3,1.79-.45,2.83-.45,1.34,0,2.38.28,3.12.83s1.11,1.29,1.11,2.23c0,.44-.09.88-.25,1.31-.17.43-.48.89-.93,1.38-.45.49-1.12,1.05-2.02,1.7l-6.18,4.53-.42-.45h8.79l-.21,1.02h-9.69Z"/>
          <path class="st3" d="M633.71,780.52c-1.46,0-2.73-.26-3.81-.79s-1.91-1.29-2.47-2.27c-.57-.98-.86-2.15-.86-3.51,0-1.78.38-3.37,1.12-4.77.75-1.4,1.77-2.51,3.06-3.33s2.74-1.23,4.36-1.23c1.38,0,2.56.26,3.54.78.98.52,1.75,1.27,2.29,2.24s.83,2.14.83,3.52c0,.3-.02.6-.06.9-.04.3-.08.58-.12.84h-13.89l.21-1.17h12.96l-.6.51c.22-1.38.13-2.54-.27-3.46-.4-.93-1.03-1.64-1.88-2.13-.85-.49-1.87-.74-3.04-.74-1.36,0-2.58.35-3.65,1.04-1.07.69-1.91,1.63-2.5,2.82s-.9,2.56-.9,4.12c0,1.7.49,3,1.47,3.92.98.91,2.42,1.36,4.32,1.36,1.12,0,2.15-.18,3.08-.55.93-.37,1.7-.88,2.29-1.54l.69,1.05c-.68.74-1.57,1.33-2.66,1.75-1.09.43-2.26.65-3.52.65Z"/>
          <path class="st3" d="M652.46,780.4l3.12-15.66h1.5l-3.12,15.66h-1.5ZM657.26,760.93c-.34,0-.62-.11-.83-.33s-.31-.48-.31-.78c0-.36.12-.67.38-.93.25-.26.56-.39.94-.39.32,0,.59.11.81.33.22.22.33.48.33.78,0,.38-.12.7-.38.95-.25.25-.57.38-.95.38Z"/>
          <path class="st3" d="M670.76,764.62c1.42,0,2.57.28,3.46.83.89.55,1.5,1.33,1.83,2.34.33,1.01.35,2.2.08,3.56l-1.8,9.06h-1.5l1.8-9.06c.34-1.66.15-2.97-.56-3.93s-1.95-1.44-3.71-1.44-3.27.5-4.47,1.48c-1.2.99-2,2.47-2.4,4.43l-1.71,8.52h-1.5l3.12-15.66h1.47l-.9,4.53-.39-.39c.74-1.48,1.73-2.56,2.97-3.24,1.24-.68,2.64-1.02,4.2-1.02Z"/>
          <path class="st3" d="M710.48,764.62c1.42,0,2.56.28,3.43.83.87.55,1.46,1.33,1.79,2.34.32,1.01.34,2.2.06,3.56l-1.83,9.06h-1.5l1.83-9.06c.32-1.66.14-2.97-.53-3.93s-1.86-1.44-3.55-1.44-3.1.46-4.26,1.39-1.93,2.32-2.31,4.16l-1.8,8.88h-1.5l1.83-9.06c.32-1.66.14-2.97-.53-3.93s-1.86-1.44-3.55-1.44-3.16.5-4.32,1.5-1.94,2.47-2.34,4.41l-1.71,8.52h-1.5l3.12-15.66h1.47l-.9,4.53-.39-.39c.74-1.48,1.71-2.56,2.91-3.24s2.55-1.02,4.05-1.02c1.12,0,2.08.19,2.87.57s1.39.92,1.81,1.62c.42.7.65,1.54.69,2.52l-.75-.18c.76-1.52,1.78-2.66,3.06-3.41,1.28-.75,2.73-1.12,4.35-1.12Z"/>
          <path class="st3" d="M720.11,780.4l3.12-15.66h1.5l-3.12,15.66h-1.5ZM724.91,760.93c-.34,0-.62-.11-.83-.33s-.31-.48-.31-.78c0-.36.12-.67.38-.93.25-.26.56-.39.94-.39.32,0,.59.11.81.33.22.22.33.48.33.78,0,.38-.12.7-.38.95-.25.25-.57.38-.95.38Z"/>
          <path class="st3" d="M738.41,764.62c1.42,0,2.57.28,3.46.83.89.55,1.5,1.33,1.83,2.34.33,1.01.35,2.2.08,3.56l-1.8,9.06h-1.5l1.8-9.06c.34-1.66.15-2.97-.56-3.93s-1.95-1.44-3.71-1.44-3.27.5-4.47,1.48c-1.2.99-2,2.47-2.4,4.43l-1.71,8.52h-1.5l3.12-15.66h1.47l-.9,4.53-.39-.39c.74-1.48,1.73-2.56,2.97-3.24,1.24-.68,2.64-1.02,4.2-1.02Z"/>
          <path class="st3" d="M754.61,780.52c-1.38,0-2.52-.27-3.41-.83-.89-.55-1.5-1.33-1.81-2.34-.32-1.01-.35-2.19-.09-3.55l1.8-9.06h1.5l-1.8,9.06c-.32,1.66-.13,2.97.56,3.93.69.96,1.91,1.44,3.64,1.44s3.26-.49,4.46-1.48c1.19-.99,1.97-2.46,2.36-4.42l1.71-8.52h1.5l-3.12,15.66h-1.47l.9-4.53.39.39c-.74,1.48-1.73,2.56-2.96,3.24-1.23.68-2.62,1.02-4.16,1.02Z"/>
          <path class="st3" d="M768.5,766.03l.24-1.29h9.39l-.24,1.29h-9.39ZM772.85,780.52c-.86,0-1.59-.18-2.18-.54s-1-.88-1.21-1.56c-.22-.68-.24-1.49-.06-2.43l2.94-14.67h1.5l-2.91,14.55c-.22,1.1-.14,1.94.23,2.5.37.57,1.05.86,2.05.86.48,0,.93-.08,1.37-.22.43-.15.83-.37,1.18-.65l.45,1.11c-.48.38-1.02.65-1.6.81-.59.16-1.18.24-1.75.24Z"/>
          <path class="st3" d="M786.5,780.52c-1.46,0-2.73-.26-3.81-.79-1.08-.53-1.91-1.29-2.48-2.27-.57-.98-.85-2.15-.85-3.51,0-1.78.38-3.37,1.12-4.77.75-1.4,1.77-2.51,3.06-3.33s2.75-1.23,4.37-1.23c1.38,0,2.56.26,3.54.78.98.52,1.74,1.27,2.29,2.24.55.97.83,2.14.83,3.52,0,.3-.02.6-.06.9s-.08.58-.12.84h-13.89l.21-1.17h12.96l-.6.51c.22-1.38.13-2.54-.27-3.46s-1.03-1.64-1.88-2.13c-.85-.49-1.87-.74-3.04-.74-1.36,0-2.58.35-3.64,1.04-1.07.69-1.91,1.63-2.5,2.82-.6,1.19-.9,2.56-.9,4.12,0,1.7.49,3,1.47,3.92s2.42,1.36,4.32,1.36c1.12,0,2.14-.18,3.08-.55.93-.37,1.69-.88,2.29-1.54l.69,1.05c-.68.74-1.56,1.33-2.65,1.75-1.09.43-2.27.65-3.53.65Z"/>
          <path class="st3" d="M801.83,780.52c-1.24,0-2.42-.18-3.53-.55-1.11-.37-1.96-.84-2.56-1.43l.81-1.17c.58.56,1.35,1,2.33,1.33.97.33,2,.5,3.08.5,1.62,0,2.88-.29,3.76-.87.89-.58,1.33-1.37,1.33-2.37,0-.68-.21-1.19-.64-1.53-.43-.34-.99-.6-1.68-.78-.69-.18-1.42-.35-2.19-.51-.77-.16-1.5-.36-2.19-.6-.69-.24-1.25-.61-1.68-1.11-.43-.5-.65-1.19-.65-2.07,0-.96.27-1.79.81-2.5s1.3-1.26,2.28-1.65c.98-.39,2.13-.58,3.45-.58.98,0,1.95.14,2.9.41.95.27,1.71.64,2.26,1.12l-.69,1.17c-.6-.46-1.31-.8-2.12-1.04-.81-.23-1.63-.34-2.47-.34-1.54,0-2.75.3-3.63.9-.88.6-1.32,1.39-1.32,2.37,0,.68.22,1.2.66,1.56.44.36,1,.63,1.68.81.68.18,1.41.35,2.19.5.78.15,1.52.35,2.21.6.69.25,1.25.61,1.68,1.09.43.48.64,1.16.64,2.04,0,.98-.28,1.83-.84,2.54-.56.71-1.34,1.25-2.34,1.62s-2.18.55-3.54.55Z"/>
          <path class="st3" d="M811.91,780.52c-.32,0-.61-.12-.86-.36s-.38-.53-.38-.87c0-.38.13-.69.41-.94.27-.25.57-.38.92-.38s.63.12.87.34c.24.23.36.53.36.88,0,.26-.06.49-.18.69s-.28.36-.48.46c-.2.11-.42.17-.66.17Z"/>
        </g>
        <circle class="st3" cx="172.49" cy="770.17" r="18.72"/>
        <g>
          <g>
            <path class="st8" d="M811.69,805.64h0c-2.94,0-5.32,2.38-5.32,5.32v84.6c0,2.94,2.38,5.32,5.32,5.32h0c2.94,0,5.32-2.38,5.32-5.32v-84.6c0-2.94-2.38-5.32-5.32-5.32Z"/>
            <path class="st1" d="M837,853.26h-50.62c0-4.01.93-7.81,2.6-11.18,4.13-8.38,12.74-14.13,22.71-14.13s17.78,5.24,22.11,12.99c2.03,3.65,3.2,7.85,3.2,12.32Z"/>
            <path class="st2" d="M837,853.26h-50.62c0-4.01.93-7.81,2.6-11.18,9.31,3.56,26.84,8.04,44.82-1.14,2.03,3.65,3.2,7.85,3.2,12.32Z"/>
            <ellipse class="st2" cx="811.47" cy="1251.64" rx="167.69" ry="14.58"/>
            <path class="st1" d="M834.2,876.14h0c-6.15,0-11.14-4.99-11.14-11.14v-7.42h-23.18v7.42c0,6.15-4.99,11.14-11.14,11.14h0v23.82h0c7.15,7.49,11.14,17.45,11.14,27.8v309h23.18v-309c0-10.36,3.99-20.31,11.14-27.8h0v-23.82Z"/>
            <rect class="st8" x="797.21" y="937.74" width="28.96" height="17.47" rx="2.43" ry="2.43"/>
            <rect class="st8" x="797.21" y="959.96" width="28.96" height="6.48" rx="2.43" ry="2.43"/>
            <rect class="st8" x="797.21" y="971.33" width="28.96" height="6.48" rx="2.43" ry="2.43"/>
            <rect class="st8" x="797.21" y="1116.64" width="28.96" height="6.48" rx="2.43" ry="2.43"/>
            <circle class="st8" cx="811.69" cy="892.14" r="13.91" transform="translate(-132.42 141.54) rotate(-9.22)"/>
            <circle class="st0" cx="811.69" cy="892.14" r="8.82" transform="translate(-323.16 1300.63) rotate(-67.5)"/>
            <circle class="st1" cx="811.69" cy="1194.54" r="25.31" transform="translate(-180.86 145.44) rotate(-9.22)"/>
            <path class="st8" d="M929.23,1236.77c0-10.98-52.72-27.4-117.76-27.4s-117.76,16.42-117.76,27.4,52.72,0,117.76,0,117.76,10.98,117.76,0Z"/>
            <path class="st8" d="M901.88,1234.12c0-16.36-40.48-46.68-90.41-46.68s-90.41,30.32-90.41,46.68,40.48,0,90.41,0,90.41,16.36,90.41,0Z"/>
            <path class="st1" d="M937.87,1234.21h-252.81c-5.56,0-10.06,4.5-10.06,10.06h0c0,5.56,4.5,10.06,10.06,10.06h252.81c5.56,0,10.06-4.5,10.06-10.06h0c0-5.56-4.5-10.06-10.06-10.06Z"/>
            <path class="st8" d="M1009.05,853.26h-394.73c-2.38,0-4.32,1.93-4.32,4.32h0c0,2.38,1.93,4.32,4.32,4.32h394.73c2.38,0,4.32-1.93,4.32-4.32h0c0-2.38-1.93-4.32-4.32-4.32Z"/>
            <path class="st0" d="M843.38,1225.51h-63.39c-2.26,0-4.08-1.83-4.08-4.08h0c0-2.26,1.83-4.08,4.08-4.08h63.39c2.26,0,4.08,1.83,4.08,4.08h0c0,2.26-1.83,4.08-4.08,4.08Z"/>
          </g>
          <circle class="st0" cx="811.69" cy="815.59" r="2.3"/>
          <path class="st0" d="M813.98,921.41c0-1.27-1.03-2.3-2.3-2.3s-2.3,1.03-2.3,2.3,1.03,2.3,2.3,2.3,2.3-1.03,2.3-2.3Z"/>
          <circle class="st0" cx="811.69" cy="1151.19" r="2.3"/>
          <circle class="st0" cx="811.69" cy="1134.43" r="2.3"/>
        </g>
        <g>
          <g>
            <path class="st14" d="M926.26,1003.78s-5.68-16.76,14.2-17.02c1.7,19.39-14.2,17.02-14.2,17.02Z"/>
            <path class="st14" d="M966.18,1083.5c-.69,0-1.35-.42-1.63-1.1-.26-.65-26.45-65.44-66.49-117.43-.59-.77-.45-1.86.32-2.46.77-.59,1.87-.45,2.46.32,40.35,52.39,66.71,117.62,66.97,118.27.36.9-.08,1.92-.97,2.28-.21.09-.43.13-.65.13Z"/>
            <path class="st14" d="M933.05,1016.05s-12.38,12.65-21.6-4.96c16.53-10.29,21.6,4.96,21.6,4.96Z"/>
            <g>
              <rect class="st1" x="876.75" y="935.46" width="1.17" height="14.07" transform="translate(-409.97 971.93) rotate(-48.36)"/>
              <polygon class="st1" points="887.73 947.52 878.31 928.83 879.36 928.3 887.12 943.71 888.83 932.28 889.99 932.46 887.73 947.52"/>
              <path class="st1" d="M888.56,934.28c1.06.47,2.3,0,2.77-1.06.47-1.06,0-2.3-1.06-2.77-1.06-.47-2.3,0-2.77,1.06-.47,1.06,0,2.3,1.06,2.77Z"/>
              <path class="st1" d="M877.65,931.23c1.47.66,3.2,0,3.85-1.48.66-1.47,0-3.2-1.48-3.85s-3.2,0-3.85,1.48,0,3.2,1.48,3.85Z"/>
              <path class="st1" d="M871.15,939.98c1.37.1,2.57-.93,2.67-2.3.1-1.37-.93-2.57-2.3-2.67-1.37-.1-2.57.93-2.67,2.3-.1,1.37.93,2.57,2.3,2.67Z"/>
              <path class="st14" d="M899.27,967.17s13.31,3.97,16.83-15.74c-17.33-7.38-16.83,15.74-16.83,15.74Z"/>
              <path class="st14" d="M901.43,967.81s-9.95-8.77-23.42,6.04c15.81,10.71,23.42-6.04,23.42-6.04Z"/>
              <g>
                <path class="st12" d="M876.12,959.56c-3.35-4.94-.53-12.7,6.3-17.34,6.83-4.64,15.09-4.39,18.44.55,3.35,4.94.53,12.7-6.3,17.34-6.83,4.64-15.09,4.39-18.44-.55Z"/>
                <path class="st6" d="M900.57,969.49c-11.18,7.58-26.91.52-29.7-10.13,6.03-3.13,10.8-.9,10.8-.9,0,0-5.51-10.23-2.23-19.35,10.98.94,17.69,8.56,17.69,8.56,0,0,1.88-7.11,5.2-9.94,7.93,4.82,11.21,22.96-1.76,31.76Z"/>
              </g>
            </g>
          </g>
          <g>
            <path class="st14" d="M1020.79,951.38s8.47-15.54-11.08-19.2c-4.99,18.82,11.08,19.2,11.08,19.2Z"/>
            <path class="st14" d="M997.71,1061.4c-.06,0-.13,0-.19-.01-.96-.1-1.66-.97-1.55-1.93.08-.7,7.9-70.62,32.66-131.93.36-.9,1.38-1.33,2.28-.97.9.36,1.33,1.38.97,2.28-24.57,60.85-32.35,130.3-32.43,131-.1.9-.86,1.56-1.74,1.56Z"/>
            <path class="st14" d="M1018.9,959.7s13.3,11.68,21.16-6.59c-17.26-9-21.16,6.59-21.16,6.59Z"/>
            <g>
              <rect class="st1" x="1038.76" y="901.04" width="14.07" height="1.17" transform="translate(-278.22 1293.52) rotate(-57.25)"/>
              <polygon class="st1" points="1037.13 909.25 1041.17 888.72 1040.02 888.5 1036.69 905.43 1031.97 894.88 1030.9 895.36 1037.13 909.25"/>
              <path class="st1" d="M1032.77,896.73c-.89.74-2.21.61-2.95-.28-.74-.89-.61-2.21.28-2.95.89-.74,2.21-.61,2.95.28s.61,2.21-.28,2.95Z"/>
              <path class="st1" d="M1042.46,890.86c-1.24,1.03-3.08.85-4.11-.39s-.85-3.08.39-4.11c1.24-1.03,3.08-.85,4.11.39,1.03,1.24.85,3.08-.39,4.11Z"/>
              <path class="st1" d="M1051.07,897.53c-1.29.47-2.72-.2-3.19-1.5s.2-2.72,1.5-3.19c1.29-.47,2.72.2,3.19,1.5.47,1.29-.2,2.72-1.5,3.19Z"/>
              <path class="st14" d="M1031.3,931.29s-11.75,7.41-20.44-10.63c14.71-11.77,20.44,10.63,20.44,10.63Z"/>
              <path class="st14" d="M1029.39,932.48s7.22-11.13,24.18-.49c-12.34,14.57-24.18.49-24.18.49Z"/>
              <g>
                <ellipse class="st12" cx="1037.38" cy="912.97" rx="10.81" ry="14.95" transform="translate(-158.18 1606.02) rotate(-71.45)"/>
                <path class="st6" d="M1030.68,933.88c12.8,4.3,26.06-6.74,25.88-17.75-6.66-1.39-10.65,2.04-10.65,2.04,0,0,2.56-11.33-3.06-19.23-10.32,3.86-14.73,13.01-14.73,13.01,0,0-3.72-6.34-7.69-8.18-6.34,6.78-4.61,25.13,10.25,30.11Z"/>
              </g>
            </g>
          </g>
          <g>
            <path class="st14" d="M987.98,1060.62c-.6,0-1.18-.31-1.51-.86-15.78-26.79-19.72-50.83-20.25-66.28-.58-16.81,2.56-27.16,2.7-27.59.29-.92,1.27-1.44,2.19-1.15.92.29,1.44,1.27,1.16,2.19-.13.41-12.17,41.15,17.23,91.06.49.83.21,1.91-.62,2.4-.28.16-.58.24-.89.24Z"/>
            <path class="st14" d="M968.64,976.72s-12.36-12.67,5.47-21.48c9.9,16.76-5.47,21.48-5.47,21.48Z"/>
            <path class="st14" d="M967.56,988.05s-15.03,9.34-19.8-9.96c18.5-6.06,19.8,9.96,19.8,9.96Z"/>
            <path class="st14" d="M967.13,987.82s5.66-16.77,21.61-4.91c-10.42,16.44-21.61,4.91-21.61,4.91Z"/>
            <path class="st14" d="M969.44,1005.77s-12.17,12.85-21.68-4.62c16.36-10.55,21.68,4.62,21.68,4.62Z"/>
            <path class="st14" d="M968.97,1005.65s1.22-17.66,19.67-10.22c-5.92,18.55-19.67,10.22-19.67,10.22Z"/>
            <path class="st14" d="M973.93,1026.3s-9.81,14.73-22.15-.87c14.33-13.18,22.15.87,22.15.87Z"/>
            <path class="st14" d="M973.45,1026.26s-1.8-17.61,17.64-13.42c-2.68,19.28-17.64,13.42-17.64,13.42Z"/>
          </g>
          <g>
            <path class="st14" d="M997.73,1058.7c-.25,0-.5-.05-.74-.17-.87-.41-1.25-1.45-.84-2.33,13.21-28.14,30.83-44.97,43.28-54.12,13.55-9.97,23.87-13.21,24.3-13.35.93-.28,1.9.23,2.19,1.16.28.92-.23,1.9-1.15,2.19-.41.13-40.83,13.18-65.45,65.61-.3.63-.93,1.01-1.59,1.01Z"/>
            <path class="st14" d="M1054.63,994.62s3.48-17.35,20.82-7.61c-8.25,17.63-20.82,7.61-20.82,7.61Z"/>
            <path class="st14" d="M1044.67,1000.13s-16.2-7.13-2.95-21.97c15.44,11.85,2.95,21.97,2.95,21.97Z"/>
            <path class="st14" d="M1044.62,999.64s17.04-4.79,16.25,15.08c-19.46.67-16.25-15.08-16.25-15.08Z"/>
            <path class="st14" d="M1031.1,1011.68s-17.47-2.8-8.42-20.5c17.94,7.56,8.42,20.5,8.42,20.5Z"/>
            <path class="st14" d="M1030.93,1011.22s15.27-8.95,19.54,10.47c-18.65,5.58-19.54-10.47-19.54-10.47Z"/>
            <path class="st14" d="M1016.69,1026.97s-17.7.21-11.78-18.77c18.97,4.39,11.78,18.77,11.78,18.77Z"/>
            <path class="st14" d="M1016.45,1026.55s13.52-11.42,21.03,6.99c-17.43,8.67-21.03-6.99-21.03-6.99Z"/>
          </g>
          <path class="st11" d="M886.09,1093.12s1.21-33.88,38.01-30.51c-6.02-23.43,24.07-39.9,40.99-19.86,23.62-24.52,91.91-4.73,79.36,54.64"/>
          <path class="st2" d="M994.65,1048.11c0,3.43-2.78,6.2-6.2,6.2s-6.2-2.78-6.2-6.2,2.78-6.2,6.2-6.2,6.2,2.78,6.2,6.2Z"/>
          <path class="st2" d="M1035.04,1069.11c0,4.13-3.35,7.48-7.48,7.48s-7.48-3.35-7.48-7.48,3.35-7.48,7.48-7.48,7.48,3.35,7.48,7.48Z"/>
          <circle class="st2" cx="988.56" cy="1098.35" r="38.24"/>
          <g>
            <path class="st14" d="M993.81,1087.63s29.16,1.5,16.29-37.06c-36.35,17.28-16.29,37.06-16.29,37.06Z"/>
            <path class="st1" d="M992.44,1091.89c-.08,0-.16-.02-.23-.05-.3-.13-.43-.47-.3-.77l14.04-31.95c.13-.3.47-.43.77-.3.3.13.43.47.3.77l-14.04,31.95c-.1.22-.31.35-.53.35Z"/>
            <path class="st1" d="M1002.95,1067.71c-.24,0-.46-.15-.55-.39l-1.99-5.5c-.11-.3.05-.64.35-.75.3-.11.64.05.75.35l1.79,4.95,4.95-1.79c.3-.11.64.05.75.35.11.3-.05.64-.35.75l-5.5,1.99c-.07.02-.13.04-.2.04Z"/>
            <path class="st1" d="M1000.01,1074.4c-.08,0-.17-.02-.25-.05-.14-.07-.25-.18-.3-.33l-1.99-5.5c-.11-.3.05-.64.35-.75.3-.11.64.05.75.35l1.79,4.95,4.95-1.79c.3-.11.64.05.75.35.11.3-.05.64-.35.75l-5.5,1.99c-.06.02-.13.04-.2.04Z"/>
            <path class="st1" d="M997.07,1081.09c-.24,0-.46-.15-.55-.39l-1.99-5.5c-.11-.3.05-.64.35-.75.3-.11.64.05.75.35l1.79,4.95,4.95-1.79c.3-.11.64.05.75.35.11.3-.05.64-.35.75l-5.5,1.99c-.07.02-.13.04-.2.04Z"/>
          </g>
          <g>
            <path class="st14" d="M970.24,1086.71s22.92-8.82-.16-34.04c-22.02,25.7.16,34.04.16,34.04Z"/>
            <path class="st1" d="M970.44,1090.59c-.32,0-.58-.26-.58-.58l-.04-24.68c0-.32.26-.58.58-.58h0c.32,0,.58.26.58.58l.04,24.68c0,.32-.26.58-.58.58h0Z"/>
            <path class="st1" d="M970.28,1074.57h-.01c-.15,0-.3-.07-.41-.18l-3.41-3.54c-.22-.23-.22-.6.02-.82.23-.22.6-.21.83.02l3,3.12,3.12-3.01c.23-.22.6-.22.82.02.22.23.22.6-.02.82l-3.54,3.41c-.11.1-.25.16-.4.16Z"/>
            <path class="st1" d="M970.31,1080.72h-.01c-.15,0-.3-.07-.41-.18l-3.41-3.54c-.22-.23-.22-.6.02-.82.23-.22.6-.22.82.02l3,3.12,3.12-3.01c.23-.22.6-.22.82.02s.22.6-.02.82l-3.54,3.41c-.11.1-.25.16-.4.16Z"/>
          </g>
          <g>
            <path class="st14" d="M938.33,1090.96s34.5-32.97-24.72-62.89c-22.3,61.78,24.72,62.89,24.72,62.89Z"/>
            <path class="st1" d="M939.92,1096.18c-.23,0-.46-.14-.54-.37l-20.42-53.17c-.12-.3.03-.64.34-.75.3-.12.64.04.75.34l20.42,53.17c.12.3-.03.64-.34.75-.07.03-.14.04-.21.04Z"/>
            <path class="st1" d="M924.35,1056.08c-.08,0-.17-.02-.25-.06l-8.62-4.09c-.29-.14-.42-.49-.28-.78.14-.29.49-.41.78-.28l8.09,3.84,3.84-8.09c.14-.29.49-.41.78-.28.29.14.42.49.28.78l-4.09,8.62c-.1.21-.31.33-.53.33Z"/>
            <path class="st1" d="M928.62,1067.21c-.09,0-.17-.02-.25-.06l-8.62-4.09c-.29-.14-.42-.49-.28-.78.14-.29.49-.41.78-.28l8.09,3.84,3.84-8.1c.14-.29.49-.41.78-.28.29.14.42.49.28.78l-4.09,8.62c-.07.14-.19.25-.33.3-.06.02-.13.03-.2.03Z"/>
            <path class="st1" d="M932.9,1078.34c-.08,0-.17-.02-.25-.06l-8.62-4.09c-.29-.14-.42-.49-.28-.78.14-.29.49-.41.78-.28l8.09,3.84,3.84-8.09c.14-.29.48-.41.78-.28.29.14.42.49.28.78l-4.09,8.62c-.1.21-.31.33-.53.33Z"/>
          </g>
        </g>
        <g>
          <path class="st0" d="M703.01,912.94s-4.54-.96-2.99-8.62c-4.96,2.52-8.46-1.54-6.2-4.61-6.29,2.1-18.88-5.32-13.23-16.3-4.36-.97-5.01-10,1.85-10.16.09-6.29,20.9-14.04,26.55,5.16,6.45-.65,7.3,9.04.99,10.16,3.38,1.7,4.03,9.72-1.61,11.92,9.79.41,9.34,9.54,7.57,13.82"/>
          <g>
            <path class="st0" d="M588.41,958.34s-14.78-5.2-9.09-18.35c-14.49,2.36-23.28-10.28-13.97-18.96-17.59-12.31-7.24-48.65,18.37-41.86,4.26-5.5,8.02,0,8.02,0,0,0,5.66-6.04,11.12-1.38,5.6,4.78.56,11.02.56,11.02,0,0,14.58-.75,18.25,12.76,3.71,13.65-8.16,24.04-8.16,24.04,0,0,3.71.59,2.97,4.6,5.05-1.48,10.39,2.37,9.2,8.01,3.86.45,10.13,11.91.17,20.5"/>
            <path class="st5" d="M613.98,901.99c0,3.43-2.78,6.21-6.21,6.21s-6.21-2.78-6.21-6.21,2.78-6.21,6.21-6.21,6.21,2.78,6.21,6.21Z"/>
            <path class="st5" d="M608.51,917.11c0,1.63-1.32,2.96-2.96,2.96s-2.96-1.32-2.96-2.96,1.32-2.96,2.96-2.96,2.96,1.32,2.96,2.96Z"/>
            <path class="st5" d="M598.94,909.11c0,2.79-2.26,5.04-5.04,5.04s-5.04-2.26-5.04-5.04,2.26-5.04,5.04-5.04,5.04,2.26,5.04,5.04Z"/>
          </g>
          <g>
            <polygon class="st0" points="720.82 1009.58 695.88 1009.58 698.39 939.69 698.67 931.97 698.89 925.64 699.17 917.92 699.38 911.98 717.32 911.98 717.53 917.92 717.81 925.64 718.03 931.97 718.31 939.69 720.82 1009.58"/>
            <polygon class="st1" points="717.81 925.64 698.89 925.64 699.17 917.92 717.53 917.92 717.81 925.64"/>
            <polygon class="st1" points="718.31 939.69 698.39 939.69 698.67 931.97 718.03 931.97 718.31 939.69"/>
          </g>
          <g>
            <path class="st8" d="M646.49,1087.77h-43.27v-.38h-40.77c-8.87-22.16,11.09-42.73,18.87-71.3,1.62-5.96,2.32-11.94,2.42-17.69.02-1.33.01-2.64-.02-3.95-.06-1.79-.17-3.54-.31-5.25-.12-1.34-.26-2.67-.44-3.96-.23-1.81-.5-3.56-.81-5.24-.25-1.37-.52-2.69-.8-3.96-2.36-10.61-5.58-17.7-5.58-17.7h29.95v.38h27.46s-3.15,6.92-5.51,17.32c-.29,1.27-.56,2.59-.81,3.96-.31,1.68-.6,3.43-.83,5.24-.18,1.29-.33,2.62-.45,3.96-.15,1.71-.27,3.46-.33,5.25-.04,1.3-.05,2.62-.04,3.95.07,5.86.77,11.97,2.43,18.07,7.76,28.57,27.73,49.13,18.85,71.3Z"/>
            <rect class="st1" x="572.58" y="955.23" width="63.79" height="6.22" rx="2.61" ry="2.61"/>
            <path class="st1" d="M627.67,976.04c-.29,1.27-.56,2.59-.81,3.96h-44.71c-.25-1.37-.52-2.69-.8-3.96h46.31Z"/>
            <path class="st1" d="M626.03,985.24c-.18,1.29-.33,2.62-.45,3.96h-42.17c-.12-1.34-.26-2.67-.44-3.96h43.06Z"/>
            <path class="st1" d="M625.24,994.45c-.04,1.3-.05,2.62-.04,3.95h-41.47c.02-1.33.01-2.64-.02-3.95h41.53Z"/>
          </g>
          <polygon class="st14" points="728.42 1087.77 670.34 1087.77 670.34 982.37 728.42 970.21 728.42 1087.77"/>
          <rect class="st1" x="699.38" y="1071.88" width="4.69" height="7.56"/>
          <rect class="st1" x="707.95" y="1071.88" width="4.69" height="7.56"/>
          <rect class="st1" x="716.52" y="1071.88" width="4.69" height="7.56"/>
          <rect class="st1" x="670.34" y="994.45" width="58.09" height="9.93"/>
          <g>
            <rect class="st1" x="588.41" y="1021.54" width="106.08" height="69.45"/>
            <path class="st11" d="M684.96,1031.9h-16.87c-.77,0-1.4-.63-1.4-1.4h0c0-.77.63-1.4,1.4-1.4h16.87c.77,0,1.4.63,1.4,1.4h0c0,.77-.63,1.4-1.4,1.4Z"/>
            <path class="st11" d="M684.96,1037.89h-16.87c-.77,0-1.4-.63-1.4-1.4h0c0-.77.63-1.4,1.4-1.4h16.87c.77,0,1.4.63,1.4,1.4h0c0,.77-.63,1.4-1.4,1.4Z"/>
            <path class="st11" d="M684.96,1043.88h-16.87c-.77,0-1.4-.63-1.4-1.4h0c0-.77.63-1.4,1.4-1.4h16.87c.77,0,1.4.63,1.4,1.4h0c0,.77-.63,1.4-1.4,1.4Z"/>
            <path class="st11" d="M684.96,1049.87h-16.87c-.77,0-1.4-.63-1.4-1.4h0c0-.77.63-1.4,1.4-1.4h16.87c.77,0,1.4.63,1.4,1.4h0c0,.77-.63,1.4-1.4,1.4Z"/>
            <path class="st11" d="M684.96,1055.86h-16.87c-.77,0-1.4-.63-1.4-1.4h0c0-.77.63-1.4,1.4-1.4h16.87c.77,0,1.4.63,1.4,1.4h0c0,.77-.63,1.4-1.4,1.4Z"/>
            <path class="st11" d="M684.96,1061.85h-16.87c-.77,0-1.4-.63-1.4-1.4h0c0-.77.63-1.4,1.4-1.4h16.87c.77,0,1.4.63,1.4,1.4h0c0,.77-.63,1.4-1.4,1.4Z"/>
            <path class="st11" d="M684.96,1067.84h-16.87c-.77,0-1.4-.63-1.4-1.4h0c0-.77.63-1.4,1.4-1.4h16.87c.77,0,1.4.63,1.4,1.4h0c0,.77-.63,1.4-1.4,1.4Z"/>
            <path class="st11" d="M684.96,1073.83h-16.87c-.77,0-1.4-.63-1.4-1.4h0c0-.77.63-1.4,1.4-1.4h16.87c.77,0,1.4.63,1.4,1.4h0c0,.77-.63,1.4-1.4,1.4Z"/>
            <rect class="st0" x="588.41" y="1013.64" width="106.08" height="7.9"/>
            <g>
              <rect class="st8" x="597.11" y="1029.1" width="13.55" height="21.59"/>
              <rect class="st12" x="600.15" y="1032.13" width="7.47" height="15.53"/>
            </g>
            <g>
              <rect class="st8" x="620.9" y="1029.1" width="13.55" height="21.59"/>
              <rect class="st12" x="623.93" y="1032.13" width="7.47" height="15.53"/>
            </g>
            <g>
              <rect class="st8" x="644.68" y="1029.1" width="13.55" height="21.59"/>
              <rect class="st12" x="647.72" y="1032.13" width="7.47" height="15.53"/>
            </g>
            <g>
              <rect class="st8" x="597.11" y="1058.26" width="13.55" height="21.59"/>
              <rect class="st12" x="600.15" y="1061.29" width="7.47" height="15.53"/>
            </g>
            <g>
              <rect class="st8" x="620.9" y="1058.26" width="13.55" height="21.59"/>
              <rect class="st12" x="623.93" y="1061.29" width="7.47" height="15.53"/>
            </g>
            <g>
              <rect class="st8" x="644.68" y="1058.26" width="13.55" height="21.59"/>
              <rect class="st12" x="647.72" y="1061.29" width="7.47" height="15.53"/>
            </g>
          </g>
          <rect class="st8" x="706.15" y="1021.11" width="11.17" height="21.61"/>
          <rect class="st1" x="688.23" y="1027.79" width="24.41" height="10.65"/>
          <rect class="st1" x="699.38" y="1050.69" width="4.69" height="7.56"/>
          <rect class="st1" x="707.95" y="1050.69" width="4.69" height="7.56"/>
          <rect class="st1" x="716.52" y="1050.69" width="4.69" height="7.56"/>
          <rect class="st1" x="699.38" y="1061.29" width="4.69" height="7.56"/>
          <rect class="st1" x="707.95" y="1061.29" width="4.69" height="7.56"/>
          <rect class="st1" x="716.52" y="1061.29" width="4.69" height="7.56"/>
          <path class="st8" d="M717.84,910.36h-18.98c-.9,0-1.63.73-1.63,1.63h0c0,.9.73,1.63,1.63,1.63h18.98c.9,0,1.63-.73,1.63-1.63h0c0-.9-.73-1.63-1.63-1.63Z"/>
          <path class="st5" d="M689.5,891.26c0,1.3-1.05,2.35-2.35,2.35s-2.35-1.05-2.35-2.35,1.05-2.35,2.35-2.35,2.35,1.05,2.35,2.35Z"/>
          <circle class="st5" cx="708.35" cy="894.49" r="2.35"/>
          <path class="st5" d="M696.9,880.16c0,2.69-2.18,4.88-4.88,4.88s-4.88-2.18-4.88-4.88,2.18-4.88,4.88-4.88,4.88,2.18,4.88,4.88Z"/>
        </g>
        <g>
          <g>
            <path class="st1" d="M752.28,1095.08c-.23,0-.44-.13-.54-.36l-98.8-235.47-85.74,231.29c-.11.3-.45.46-.75.34-.3-.11-.46-.45-.34-.75l86.25-232.67c.08-.22.3-.38.53-.38.27,0,.46.14.55.36l99.37,236.83c.12.3-.01.64-.31.76-.07.03-.15.05-.23.05Z"/>
            <path class="st1" d="M723.96,1095.08c-.25,0-.48-.16-.56-.42l-71.04-236.83c-.09-.31.08-.63.39-.73.31-.09.63.08.73.39l71.04,236.83c.09.31-.08.63-.39.73-.06.02-.11.02-.17.02Z"/>
            <g>
              <path class="st1" d="M752.28,1094.5c0,23.96-43.28,57.77-96.68,57.77s-96.68-33.81-96.68-57.77h193.36Z"/>
              <rect class="st8" x="552.91" y="1085.83" width="205.38" height="14.58" rx="5.74" ry="5.74"/>
            </g>
            <circle class="st1" cx="653.22" cy="858.4" r="10.09" transform="translate(-179.75 173.04) rotate(-13.28)"/>
            <path class="st0" d="M657.92,858.4c0-2.59-2.1-4.7-4.7-4.7s-4.7,2.1-4.7,4.7,2.1,4.7,4.7,4.7,4.7-2.1,4.7-4.7Z"/>
          </g>
          <g>
            <path class="st1" d="M1064.45,1095.08c-.23,0-.44-.13-.54-.36l-98.8-235.47-85.74,231.29c-.11.3-.45.46-.75.34-.3-.11-.46-.45-.34-.75l86.25-232.67c.08-.22.3-.38.53-.38.26,0,.46.14.55.36l99.37,236.83c.12.3-.01.64-.31.76-.07.03-.15.05-.23.05Z"/>
            <path class="st1" d="M1036.12,1095.08c-.25,0-.48-.16-.56-.42l-71.04-236.83c-.09-.31.08-.63.39-.73.31-.09.63.08.73.39l71.04,236.83c.09.31-.08.63-.39.73-.06.02-.11.02-.17.02Z"/>
            <g>
              <path class="st1" d="M1064.45,1094.5c0,23.96-43.28,57.77-96.68,57.77s-96.68-33.81-96.68-57.77h193.36Z"/>
              <rect class="st8" x="865.08" y="1085.83" width="205.38" height="14.58" rx="5.74" ry="5.74"/>
            </g>
            <circle class="st1" cx="965.39" cy="858.4" r="10.09" transform="translate(-324.22 934.05) rotate(-45)"/>
            <path class="st0" d="M970.09,858.4c0-2.59-2.1-4.7-4.7-4.7s-4.7,2.1-4.7,4.7,2.1,4.7,4.7,4.7,4.7-2.1,4.7-4.7Z"/>
          </g>
        </g>
      </g>
    </g>
  </g>
</svg>